<?xml version="1.0" encoding="UTF-8" standalone="no"?>
<!DOCTYPE svg PUBLIC "-//W3C//DTD SVG 1.1//EN" "http://www.w3.org/Graphics/SVG/1.1/DTD/svg11.dtd">
<svg width="100%" height="100%" viewBox="0 0 1024 768" version="1.1" xmlns="http://www.w3.org/2000/svg" xmlns:xlink="http://www.w3.org/1999/xlink" xml:space="preserve" xmlns:serif="http://www.serif.com/" style="fill-rule:evenodd;clip-rule:evenodd;stroke-miterlimit:2;">
    <g transform="matrix(2.242362,0,0,1.669309,-66.279371,-34.74665)">
        <g opacity="0.16">
            <g transform="matrix(0.991189,0,0,1.119403,-0.700441,-14.298507)">
                <ellipse cx="261" cy="237" rx="227" ry="201" style="fill:white;fill-opacity:0.05;"/>
            </g>
            <g transform="matrix(0.951542,0,0,1.074627,9.647577,-3.686567)">
                <ellipse cx="261" cy="237" rx="227" ry="201" style="fill:white;fill-opacity:0.05;"/>
            </g>
            <g transform="matrix(0.911894,0,0,1.029851,19.995595,6.925373)">
                <ellipse cx="261" cy="237" rx="227" ry="201" style="fill:white;fill-opacity:0.05;"/>
            </g>
            <g transform="matrix(0.872247,0,0,0.985075,30.343612,17.537313)">
                <ellipse cx="261" cy="237" rx="227" ry="201" style="fill:white;fill-opacity:0.05;"/>
            </g>
            <g transform="matrix(0.832599,0,0,0.940299,40.69163,28.149254)">
                <ellipse cx="261" cy="237" rx="227" ry="201" style="fill:white;fill-opacity:0.05;"/>
            </g>
            <g transform="matrix(0.792952,0,0,0.895522,51.039648,38.761194)">
                <ellipse cx="261" cy="237" rx="227" ry="201" style="fill:white;fill-opacity:0.05;"/>
            </g>
            <g transform="matrix(0.773128,0,0,0.873134,56.213656,44.067164)">
                <ellipse cx="261" cy="237" rx="227" ry="201" style="fill:white;fill-opacity:0.05;"/>
            </g>
            <g transform="matrix(0.753304,0,0,0.850746,61.387665,49.373134)">
                <ellipse cx="261" cy="237" rx="227" ry="201" style="fill:white;fill-opacity:0.05;"/>
            </g>
            <g transform="matrix(0.73348,0,0,0.828358,66.561674,54.679104)">
                <ellipse cx="261" cy="237" rx="227" ry="201" style="fill:white;fill-opacity:0.05;"/>
            </g>
            <g transform="matrix(0.713656,0,0,0.80597,71.735683,59.985075)">
                <ellipse cx="261" cy="237" rx="227" ry="201" style="fill:white;fill-opacity:0.05;"/>
            </g>
            <g transform="matrix(0.693833,0,0,0.783582,76.909692,65.291045)">
                <ellipse cx="261" cy="237" rx="227" ry="201" style="fill:white;fill-opacity:0.05;"/>
            </g>
            <g transform="matrix(0.674009,0,0,0.761194,82.0837,70.597015)">
                <ellipse cx="261" cy="237" rx="227" ry="201" style="fill:white;fill-opacity:0.05;"/>
            </g>
            <g transform="matrix(0.654185,0,0,0.738806,87.257709,75.902985)">
                <ellipse cx="261" cy="237" rx="227" ry="201" style="fill:white;fill-opacity:0.05;"/>
            </g>
            <g transform="matrix(0.634361,0,0,0.716418,92.431718,81.208955)">
                <ellipse cx="261" cy="237" rx="227" ry="201" style="fill:white;fill-opacity:0.05;"/>
            </g>
            <g transform="matrix(0.614537,0,0,0.69403,97.605727,86.514925)">
                <ellipse cx="261" cy="237" rx="227" ry="201" style="fill:white;fill-opacity:0.05;"/>
            </g>
            <g transform="matrix(0.594714,0,0,0.671642,102.779736,91.820896)">
                <ellipse cx="261" cy="237" rx="227" ry="201" style="fill:white;fill-opacity:0.05;"/>
            </g>
            <g transform="matrix(0.555066,0,0,0.626866,113.127753,102.432836)">
                <ellipse cx="261" cy="237" rx="227" ry="201" style="fill:white;fill-opacity:0.05;"/>
            </g>
            <g transform="matrix(0.57489,0,0,0.649254,107.953744,97.126866)">
                <ellipse cx="261" cy="237" rx="227" ry="201" style="fill:white;fill-opacity:0.05;"/>
            </g>
        </g>
    </g>
    <g transform="matrix(1,0,0,1,-27.850671,237.624638)">
        <g transform="matrix(3.492907,0,0,3.492907,-355.583548,-879.790675)">
            <g>
                <g>
                    <g transform="matrix(0.824647,0,0,0.828297,-1071.538281,-17.312145)">
                        <path d="M1628.13,292.932L1625.614,307.312L1593.57,308.982L1593.57,291.123" style="fill:rgb(104,203,222);fill-opacity:0.13;"/>
                    </g>
                    <g transform="matrix(0.824647,0,0,0.828297,-1071.538281,-17.312145)">
                        <path d="M1606.94,328.717L1598.737,353.473L1623.108,348.885L1613.658,370.192L1598.737,353.473L1590.64,358.697" style="fill:rgb(104,203,222);fill-opacity:0.13;"/>
                    </g>
                    <g transform="matrix(0.824647,0,0,0.828297,-1071.538281,-17.312145)">
                        <path d="M1623.501,348.642L1633.69,345.027L1625.513,328.619L1638.1,323.099L1610.85,287.003L1581.55,323.099" style="fill:rgb(104,203,222);fill-opacity:0.13;"/>
                    </g>
                    <g transform="matrix(1.034747,0,0,1.039327,-7.764928,147.915609)">
                        <path d="M255.387,136.066C255.344,136.068 255.301,136.07 255.257,136.072C255.143,136.077 255.027,136.08 254.911,136.082C246.363,135.919 241.813,129.199 239.921,127.071C238.311,125.263 236.231,118.345 235.896,115.995C235.561,113.645 234.549,113.981 232.876,112.974C231.194,111.968 229.449,104.504 229.512,101.562C229.544,100.178 232.374,98.52 232.374,98.52C232.374,98.52 229.632,87.694 236.406,78.014C242.21,69.717 254.113,69.743 254.887,69.753L254.907,69.753L255.004,69.753C256.282,69.746 267.747,69.92 273.417,78.014C280.191,87.694 277.441,98.52 277.441,98.52C277.441,98.52 280.271,100.178 280.302,101.562C280.374,104.504 278.629,111.968 276.947,112.974C275.274,113.981 274.261,113.645 273.927,115.995C273.592,118.345 271.512,125.263 269.902,127.071C268.067,129.135 263.733,135.515 255.679,136.05C255.582,136.056 255.485,136.062 255.387,136.066Z" style="fill:rgb(104,203,222);fill-opacity:0.08;"/>
                    </g>
                    <g transform="matrix(0.824647,0,0,0.828297,-1071.538281,-17.645446)">
                        <path d="M1583.6,302.742L1593.717,309.384L1607.454,328.082L1626.241,306.557L1625.21,328.521L1623.55,349.022L1607.454,328.082" style="fill:rgb(104,203,222);fill-opacity:0.13;"/>
                    </g>
                </g>
                <g>
                    <g transform="matrix(0.824647,0,0,0.828297,-1071.538281,-17.312145)">
                        <path d="M1628.13,292.932L1625.614,307.312L1593.57,308.982L1593.57,291.123" style="fill:none;stroke:rgb(109,204,222);stroke-width:0.69px;"/>
                    </g>
                    <g transform="matrix(0.824647,0,0,0.828297,-1071.538281,-17.312145)">
                        <path d="M1605.14,329.721L1586.158,345.549" style="fill:none;stroke:rgb(109,204,222);stroke-width:0.69px;"/>
                    </g>
                    <g transform="matrix(0.824647,0,0,0.828297,-1071.538281,-17.312145)">
                        <path d="M1623.501,348.642L1633.286,345.027L1625.257,328.315L1638.1,323.099C1638.1,323.099 1630.379,312.871 1626.518,307.757C1621.976,301.741 1610.85,287.405 1610.85,287.405L1581.55,323.099" style="fill:none;stroke:rgb(109,204,222);stroke-width:0.69px;"/>
                    </g>
                    <g transform="matrix(-7.091689,0.686965,0.683939,0.946672,9211.752195,-891.73893)">
                        <path d="M1289.669,274.962L1292.001,268.523" style="fill:none;stroke:rgb(109,204,222);stroke-width:0.12px;stroke-linecap:round;stroke-linejoin:round;stroke-miterlimit:1.5;"/>
                    </g>
                    <g transform="matrix(0.824647,0,0,0.828297,-1071.538281,-17.312145)">
                        <path d="M1607.161,328.111L1586.158,345.549" style="fill:none;stroke:rgb(109,204,222);stroke-width:0.69px;"/>
                    </g>
                    <g transform="matrix(4.560786,-0.302265,-0.300933,1.030282,-5545.512034,361.07059)">
                        <path d="M1289.741,275.293L1292.897,276.353" style="fill:none;stroke:rgb(109,204,222);stroke-width:0.19px;stroke-linecap:round;stroke-linejoin:round;stroke-miterlimit:1.5;"/>
                    </g>
                    <g transform="matrix(0.824647,0,0,0.828297,-1071.538281,-17.312145)">
                        <path d="M1598.915,353.256L1586.374,346.234" style="fill:none;stroke:rgb(109,204,222);stroke-width:0.69px;"/>
                    </g>
                    <g transform="matrix(0.824647,0,0,0.828297,-1071.538281,-17.312145)">
                        <path d="M1598.107,352.853L1586.374,345.832" style="fill:none;stroke:rgb(109,204,222);stroke-width:0.69px;"/>
                    </g>
                    <g transform="matrix(4.560786,-0.302265,-0.300933,1.030282,-5545.512034,361.07059)">
                        <path d="M1289.816,275.315L1292.897,276.353" style="fill:none;stroke:rgb(109,204,222);stroke-width:0.19px;stroke-linecap:round;stroke-linejoin:round;stroke-miterlimit:1.5;"/>
                    </g>
                    <g transform="matrix(0.824647,0,0,0.828297,-1071.538281,-17.312145)">
                        <path d="M1583.6,302.742L1593.717,309.384L1607.454,328.082L1626.241,306.557L1625.21,328.521L1623.55,349.022L1607.454,328.082" style="fill:none;stroke:rgb(109,204,222);stroke-width:0.69px;"/>
                    </g>
                    <g transform="matrix(1.034747,0,0,1.039327,-7.764928,147.915609)">
                        <path d="M255.387,136.066C255.344,136.068 255.301,136.07 255.257,136.072C255.143,136.077 255.027,136.08 254.911,136.082C246.363,135.919 241.813,129.199 239.921,127.071C238.311,125.263 236.231,118.345 235.896,115.995C235.561,113.645 234.549,113.981 232.876,112.974C231.194,111.968 229.449,104.504 229.512,101.562C229.544,100.178 232.374,98.52 232.374,98.52C232.374,98.52 229.632,87.694 236.406,78.014C242.21,69.717 254.113,69.743 254.887,69.753L254.907,69.753L255.004,69.753C256.282,69.746 267.747,69.92 273.417,78.014C280.191,87.694 277.441,98.52 277.441,98.52C277.441,98.52 280.271,100.178 280.302,101.562C280.374,104.504 278.629,111.968 276.947,112.974C275.274,113.981 274.261,113.645 273.927,115.995C273.592,118.345 271.512,125.263 269.902,127.071C268.067,129.135 263.733,135.515 255.679,136.05C255.582,136.056 255.485,136.062 255.387,136.066Z" style="fill:none;stroke:rgb(109,204,222);stroke-width:1.84px;"/>
                    </g>
                    <g transform="matrix(0.824647,0,0,0.828297,-1071.538281,-17.312145)">
                        <path d="M1607.344,328.315L1599.141,353.875L1623.513,349.288L1613.731,370.329L1599.141,353.875L1590.64,358.697" style="fill:none;stroke:rgb(109,204,222);stroke-width:0.69px;"/>
                    </g>
                </g>
            </g>
            <g>
                <g transform="matrix(0.571705,0,0,0.574235,-668.455402,61.18842)">
                    <path d="M1596.49,308.982C1596.49,310.592 1595.18,311.897 1593.57,311.897C1591.96,311.897 1590.66,310.592 1590.66,308.982C1590.66,307.372 1591.96,306.067 1593.57,306.067C1595.18,306.067 1596.49,307.372 1596.49,308.982Z" style="fill:rgb(109,204,222);fill-rule:nonzero;stroke:rgb(109,204,222);stroke-width:0.5px;stroke-linejoin:round;"/>
                </g>
                <g transform="matrix(0.571705,0,0,0.574235,-659.785694,59.968887)">
                    <path d="M1628.13,308.117C1628.13,309.728 1626.82,311.033 1625.21,311.033C1623.6,311.033 1622.3,309.728 1622.3,308.117C1622.3,306.507 1623.6,305.202 1625.21,305.202C1626.82,305.202 1628.13,306.507 1628.13,308.117Z" style="fill:rgb(109,204,222);fill-rule:nonzero;stroke:rgb(109,204,222);stroke-width:0.5px;stroke-linejoin:round;"/>
                </g>
                <g transform="matrix(0.571705,0,0,0.574235,-660.452297,66.177433)">
                    <path d="M1628.13,328.619C1628.13,330.229 1626.82,331.534 1625.21,331.534C1623.6,331.534 1622.3,330.229 1622.3,328.619C1622.3,327.009 1623.6,325.704 1625.21,325.704C1626.82,325.704 1628.13,327.009 1628.13,328.619Z" style="fill:rgb(109,204,222);fill-rule:nonzero;stroke:rgb(109,204,222);stroke-width:0.5px;stroke-linejoin:round;"/>
                </g>
                <g transform="matrix(0.571705,0,0,0.574235,-664.742792,65.844131)">
                    <path d="M1609.85,328.619C1609.85,330.229 1608.55,331.534 1606.94,331.534C1605.33,331.534 1604.02,330.229 1604.02,328.619C1604.02,327.009 1605.33,325.704 1606.94,325.704C1608.55,325.704 1609.85,327.009 1609.85,328.619Z" style="fill:rgb(109,204,222);fill-rule:nonzero;stroke:rgb(109,204,222);stroke-width:0.5px;stroke-linejoin:round;"/>
                </g>
                <g transform="matrix(0.571705,0,0,0.574235,-660.87219,71.38609)">
                    <path d="M1626.47,349.121C1626.47,350.731 1625.16,352.036 1623.55,352.036C1621.94,352.036 1620.64,350.731 1620.64,349.121C1620.64,347.51 1621.94,346.205 1623.55,346.205C1625.16,346.205 1626.47,347.51 1626.47,349.121Z" style="fill:rgb(109,204,222);fill-rule:nonzero;stroke:rgb(109,204,222);stroke-width:0.5px;stroke-linejoin:round;"/>
                </g>
                <g transform="matrix(0.571693,0,0,0.574223,-667.100735,72.480136)">
                    <path d="M1601.77,353.41C1601.77,355.02 1600.47,356.325 1598.86,356.325C1597.25,356.325 1595.94,355.02 1595.94,353.41C1595.94,351.8 1597.25,350.495 1598.86,350.495C1600.47,350.495 1601.77,351.8 1601.77,353.41Z" style="fill:rgb(109,204,222);fill-rule:nonzero;stroke:rgb(109,204,222);stroke-width:0.5px;stroke-linejoin:round;"/>
                </g>
            </g>
        </g>
        <g transform="matrix(1.758689,0,0,1.758689,62.396006,-448.278408)">
            <g transform="matrix(0.948638,0,0,0.948638,51.466116,256.543754)">
                <g transform="matrix(1.706462,0,0,1.706462,-88.834609,-615.243396)">
                    <g transform="matrix(10.302424,0,0,10.348019,55.078177,490.918059)">
                        <path d="M0.8,-0.355C0.8,-0.3 0.791,-0.25 0.771,-0.205C0.752,-0.159 0.726,-0.12 0.693,-0.087C0.66,-0.053 0.62,-0.028 0.574,-0.009C0.528,0.009 0.478,0.018 0.424,0.018C0.37,0.018 0.32,0.009 0.275,-0.009C0.229,-0.028 0.189,-0.053 0.156,-0.087C0.123,-0.12 0.097,-0.159 0.078,-0.205C0.059,-0.25 0.05,-0.3 0.05,-0.355C0.05,-0.41 0.059,-0.461 0.078,-0.507C0.097,-0.552 0.123,-0.591 0.156,-0.624C0.189,-0.656 0.229,-0.681 0.275,-0.699C0.32,-0.717 0.37,-0.726 0.424,-0.726C0.478,-0.726 0.528,-0.717 0.574,-0.699C0.62,-0.681 0.66,-0.656 0.693,-0.624C0.726,-0.591 0.752,-0.552 0.771,-0.507C0.791,-0.461 0.8,-0.41 0.8,-0.355ZM0.693,-0.355C0.693,-0.394 0.687,-0.43 0.674,-0.465C0.661,-0.499 0.643,-0.529 0.62,-0.555C0.597,-0.581 0.568,-0.602 0.535,-0.617C0.502,-0.632 0.465,-0.639 0.424,-0.639C0.383,-0.639 0.346,-0.632 0.314,-0.617C0.281,-0.602 0.253,-0.581 0.23,-0.555C0.207,-0.529 0.189,-0.499 0.176,-0.465C0.163,-0.43 0.157,-0.394 0.157,-0.355C0.157,-0.316 0.163,-0.279 0.176,-0.244C0.189,-0.209 0.207,-0.179 0.23,-0.153C0.253,-0.128 0.281,-0.108 0.314,-0.093C0.347,-0.078 0.383,-0.071 0.424,-0.071C0.465,-0.071 0.502,-0.078 0.535,-0.093C0.568,-0.108 0.597,-0.128 0.62,-0.153C0.643,-0.179 0.661,-0.209 0.674,-0.244C0.687,-0.279 0.693,-0.316 0.693,-0.355Z" style="fill:white;fill-rule:nonzero;stroke:white;stroke-width:0.03px;stroke-linejoin:round;"/>
                    </g>
                    <g transform="matrix(10.302424,0,0,10.348019,65.16425,490.918059)">
                        <path d="M0.166,-0.474C0.167,-0.462 0.168,-0.448 0.169,-0.433C0.17,-0.419 0.17,-0.406 0.17,-0.396L0.173,-0.396C0.179,-0.409 0.187,-0.421 0.198,-0.431C0.208,-0.443 0.22,-0.452 0.233,-0.461C0.246,-0.469 0.261,-0.475 0.277,-0.48C0.293,-0.485 0.31,-0.487 0.327,-0.487C0.358,-0.487 0.384,-0.482 0.406,-0.472C0.428,-0.461 0.446,-0.447 0.461,-0.43C0.476,-0.413 0.486,-0.392 0.493,-0.369C0.501,-0.346 0.504,-0.321 0.504,-0.294L0.504,-0L0.41,-0L0.41,-0.263C0.41,-0.282 0.409,-0.301 0.406,-0.318C0.403,-0.335 0.397,-0.351 0.389,-0.364C0.381,-0.377 0.37,-0.388 0.356,-0.396C0.342,-0.404 0.324,-0.408 0.302,-0.408C0.265,-0.408 0.234,-0.394 0.21,-0.365C0.187,-0.337 0.175,-0.299 0.175,-0.252L0.175,-0L0.081,-0L0.081,-0.372C0.081,-0.385 0.081,-0.401 0.08,-0.421C0.079,-0.441 0.078,-0.459 0.077,-0.474L0.166,-0.474Z" style="fill:white;fill-rule:nonzero;stroke:white;stroke-width:0.03px;stroke-linejoin:round;"/>
                    </g>
                    <g transform="matrix(10.302424,0,0,10.348019,72.499576,490.918059)">
                        <path d="M0.428,-0.279C0.427,-0.298 0.424,-0.315 0.418,-0.332C0.413,-0.348 0.405,-0.362 0.394,-0.374C0.383,-0.386 0.369,-0.396 0.352,-0.403C0.336,-0.41 0.317,-0.413 0.295,-0.413C0.275,-0.413 0.256,-0.41 0.239,-0.403C0.221,-0.396 0.206,-0.386 0.193,-0.374C0.179,-0.362 0.169,-0.348 0.161,-0.332C0.152,-0.315 0.147,-0.298 0.146,-0.279L0.428,-0.279ZM0.523,-0.241L0.523,-0.225C0.523,-0.22 0.523,-0.214 0.522,-0.209L0.146,-0.209C0.147,-0.189 0.151,-0.17 0.16,-0.152C0.168,-0.135 0.179,-0.119 0.193,-0.106C0.207,-0.094 0.223,-0.083 0.241,-0.076C0.26,-0.069 0.279,-0.065 0.3,-0.065C0.332,-0.065 0.36,-0.072 0.383,-0.086C0.406,-0.1 0.425,-0.117 0.438,-0.137L0.504,-0.084C0.479,-0.051 0.449,-0.026 0.415,-0.011C0.38,0.005 0.342,0.013 0.3,0.013C0.264,0.013 0.231,0.007 0.2,-0.005C0.169,-0.017 0.143,-0.034 0.121,-0.056C0.099,-0.077 0.082,-0.103 0.069,-0.134C0.056,-0.165 0.05,-0.199 0.05,-0.236C0.05,-0.273 0.056,-0.306 0.069,-0.338C0.081,-0.369 0.098,-0.395 0.12,-0.417C0.142,-0.439 0.168,-0.456 0.198,-0.469C0.228,-0.481 0.26,-0.487 0.295,-0.487C0.33,-0.487 0.361,-0.481 0.39,-0.47C0.418,-0.459 0.442,-0.442 0.462,-0.421C0.481,-0.4 0.496,-0.374 0.507,-0.344C0.518,-0.313 0.523,-0.279 0.523,-0.241Z" style="fill:white;fill-rule:nonzero;stroke:white;stroke-width:0.03px;stroke-linejoin:round;"/>
                    </g>
                    <g transform="matrix(10.302424,0,0,10.348019,83.657101,490.918059)">
                        <path d="M0.175,0.24L0.081,0.24L0.081,-0.474L0.173,-0.474L0.173,-0.4L0.176,-0.4C0.191,-0.425 0.214,-0.446 0.243,-0.463C0.273,-0.479 0.308,-0.487 0.347,-0.487C0.382,-0.487 0.415,-0.481 0.444,-0.468C0.472,-0.455 0.497,-0.438 0.518,-0.415C0.539,-0.392 0.556,-0.366 0.567,-0.336C0.578,-0.305 0.584,-0.273 0.584,-0.238C0.584,-0.203 0.578,-0.171 0.567,-0.14C0.556,-0.109 0.54,-0.083 0.519,-0.06C0.498,-0.037 0.473,-0.019 0.444,-0.007C0.415,0.007 0.382,0.013 0.345,0.013C0.311,0.013 0.279,0.006 0.249,-0.009C0.219,-0.024 0.195,-0.044 0.178,-0.071L0.175,-0.071L0.175,0.24ZM0.487,-0.238C0.487,-0.26 0.484,-0.281 0.477,-0.302C0.47,-0.323 0.46,-0.341 0.447,-0.357C0.434,-0.373 0.417,-0.386 0.398,-0.395C0.378,-0.404 0.355,-0.409 0.329,-0.409C0.305,-0.409 0.283,-0.404 0.264,-0.395C0.244,-0.386 0.227,-0.373 0.213,-0.357C0.199,-0.341 0.188,-0.323 0.18,-0.302C0.173,-0.281 0.169,-0.26 0.169,-0.237C0.169,-0.214 0.173,-0.193 0.18,-0.172C0.188,-0.151 0.199,-0.133 0.213,-0.118C0.227,-0.102 0.244,-0.089 0.264,-0.08C0.283,-0.071 0.305,-0.066 0.329,-0.066C0.355,-0.066 0.378,-0.071 0.398,-0.081C0.417,-0.09 0.434,-0.103 0.447,-0.119C0.46,-0.135 0.47,-0.153 0.477,-0.174C0.484,-0.195 0.487,-0.216 0.487,-0.238Z" style="fill:white;fill-rule:nonzero;stroke:white;stroke-width:0.03px;stroke-linejoin:round;"/>
                    </g>
                    <g transform="matrix(10.302424,0,0,10.348019,91.528153,490.918059)">
                        <path d="M0.428,-0.279C0.427,-0.298 0.424,-0.315 0.418,-0.332C0.413,-0.348 0.405,-0.362 0.394,-0.374C0.383,-0.386 0.369,-0.396 0.352,-0.403C0.336,-0.41 0.317,-0.413 0.295,-0.413C0.275,-0.413 0.256,-0.41 0.239,-0.403C0.221,-0.396 0.206,-0.386 0.193,-0.374C0.179,-0.362 0.169,-0.348 0.161,-0.332C0.152,-0.315 0.147,-0.298 0.146,-0.279L0.428,-0.279ZM0.523,-0.241L0.523,-0.225C0.523,-0.22 0.523,-0.214 0.522,-0.209L0.146,-0.209C0.147,-0.189 0.151,-0.17 0.16,-0.152C0.168,-0.135 0.179,-0.119 0.193,-0.106C0.207,-0.094 0.223,-0.083 0.241,-0.076C0.26,-0.069 0.279,-0.065 0.3,-0.065C0.332,-0.065 0.36,-0.072 0.383,-0.086C0.406,-0.1 0.425,-0.117 0.438,-0.137L0.504,-0.084C0.479,-0.051 0.449,-0.026 0.415,-0.011C0.38,0.005 0.342,0.013 0.3,0.013C0.264,0.013 0.231,0.007 0.2,-0.005C0.169,-0.017 0.143,-0.034 0.121,-0.056C0.099,-0.077 0.082,-0.103 0.069,-0.134C0.056,-0.165 0.05,-0.199 0.05,-0.236C0.05,-0.273 0.056,-0.306 0.069,-0.338C0.081,-0.369 0.098,-0.395 0.12,-0.417C0.142,-0.439 0.168,-0.456 0.198,-0.469C0.228,-0.481 0.26,-0.487 0.295,-0.487C0.33,-0.487 0.361,-0.481 0.39,-0.47C0.418,-0.459 0.442,-0.442 0.462,-0.421C0.481,-0.4 0.496,-0.374 0.507,-0.344C0.518,-0.313 0.523,-0.279 0.523,-0.241Z" style="fill:white;fill-rule:nonzero;stroke:white;stroke-width:0.03px;stroke-linejoin:round;"/>
                    </g>
                    <g transform="matrix(10.302424,0,0,10.348019,98.770758,490.918059)">
                        <path d="M0.081,-0.372C0.081,-0.385 0.081,-0.401 0.08,-0.421C0.079,-0.441 0.078,-0.459 0.077,-0.474L0.166,-0.474C0.167,-0.462 0.168,-0.448 0.169,-0.432C0.17,-0.417 0.17,-0.404 0.17,-0.394L0.173,-0.394C0.186,-0.422 0.206,-0.444 0.232,-0.462C0.257,-0.478 0.286,-0.487 0.318,-0.487C0.333,-0.487 0.345,-0.486 0.355,-0.483L0.351,-0.396C0.338,-0.399 0.323,-0.401 0.308,-0.401C0.285,-0.401 0.266,-0.397 0.249,-0.389C0.232,-0.38 0.218,-0.369 0.208,-0.355C0.197,-0.341 0.188,-0.325 0.183,-0.306C0.178,-0.288 0.175,-0.269 0.175,-0.249L0.175,-0L0.081,-0L0.081,-0.372Z" style="fill:white;fill-rule:nonzero;stroke:white;stroke-width:0.03px;stroke-linejoin:round;"/>
                    </g>
                    <g transform="matrix(10.302424,0,0,10.348019,103.83955,490.918059)">
                        <path d="M0.337,-0.354C0.326,-0.371 0.311,-0.386 0.292,-0.397C0.273,-0.408 0.251,-0.413 0.227,-0.413C0.216,-0.413 0.206,-0.412 0.195,-0.41C0.184,-0.407 0.175,-0.404 0.167,-0.399C0.158,-0.394 0.151,-0.387 0.146,-0.38C0.141,-0.372 0.139,-0.362 0.139,-0.351C0.139,-0.331 0.148,-0.316 0.166,-0.306C0.184,-0.297 0.211,-0.288 0.247,-0.28C0.27,-0.275 0.291,-0.268 0.31,-0.261C0.329,-0.254 0.346,-0.245 0.36,-0.234C0.375,-0.223 0.386,-0.209 0.394,-0.194C0.402,-0.179 0.406,-0.161 0.406,-0.14C0.406,-0.112 0.401,-0.088 0.39,-0.069C0.379,-0.05 0.365,-0.034 0.348,-0.022C0.33,-0.009 0.31,-0 0.287,0.005C0.264,0.01 0.241,0.013 0.217,0.013C0.181,0.013 0.146,0.006 0.112,-0.008C0.077,-0.022 0.049,-0.043 0.026,-0.072L0.093,-0.129C0.106,-0.11 0.123,-0.095 0.145,-0.082C0.168,-0.069 0.192,-0.063 0.219,-0.063C0.231,-0.063 0.243,-0.064 0.254,-0.067C0.265,-0.069 0.275,-0.073 0.284,-0.078C0.292,-0.083 0.3,-0.09 0.305,-0.099C0.31,-0.108 0.313,-0.119 0.313,-0.132C0.313,-0.154 0.302,-0.17 0.282,-0.181C0.261,-0.192 0.23,-0.202 0.189,-0.211C0.173,-0.215 0.157,-0.22 0.141,-0.226C0.124,-0.231 0.109,-0.239 0.096,-0.249C0.083,-0.259 0.072,-0.272 0.064,-0.287C0.055,-0.302 0.051,-0.32 0.051,-0.342C0.051,-0.367 0.056,-0.389 0.067,-0.408C0.077,-0.426 0.09,-0.441 0.107,-0.453C0.124,-0.464 0.143,-0.473 0.164,-0.479C0.185,-0.484 0.207,-0.487 0.23,-0.487C0.264,-0.487 0.297,-0.48 0.329,-0.467C0.36,-0.454 0.385,-0.434 0.402,-0.409L0.337,-0.354Z" style="fill:white;fill-rule:nonzero;stroke:white;stroke-width:0.03px;stroke-linejoin:round;"/>
                    </g>
                    <g transform="matrix(10.302424,0,0,10.348019,109.753142,490.918059)">
                        <path d="M0.561,-0.238C0.561,-0.201 0.554,-0.168 0.541,-0.137C0.529,-0.106 0.511,-0.08 0.487,-0.058C0.464,-0.035 0.437,-0.018 0.406,-0.005C0.375,0.007 0.341,0.013 0.305,0.013C0.269,0.013 0.235,0.007 0.204,-0.005C0.173,-0.018 0.146,-0.035 0.123,-0.058C0.1,-0.08 0.083,-0.106 0.07,-0.137C0.057,-0.168 0.05,-0.201 0.05,-0.238C0.05,-0.275 0.057,-0.308 0.07,-0.339C0.083,-0.369 0.1,-0.395 0.123,-0.417C0.146,-0.439 0.173,-0.456 0.204,-0.469C0.235,-0.481 0.269,-0.487 0.305,-0.487C0.341,-0.487 0.375,-0.481 0.406,-0.469C0.437,-0.456 0.464,-0.439 0.487,-0.417C0.511,-0.395 0.529,-0.369 0.541,-0.339C0.554,-0.308 0.561,-0.275 0.561,-0.238ZM0.463,-0.238C0.463,-0.261 0.46,-0.282 0.453,-0.303C0.446,-0.324 0.435,-0.342 0.422,-0.357C0.409,-0.373 0.392,-0.386 0.372,-0.395C0.353,-0.404 0.33,-0.409 0.305,-0.409C0.28,-0.409 0.257,-0.404 0.238,-0.395C0.218,-0.386 0.201,-0.373 0.188,-0.357C0.175,-0.342 0.165,-0.324 0.158,-0.303C0.15,-0.282 0.147,-0.261 0.147,-0.238C0.147,-0.215 0.15,-0.194 0.158,-0.173C0.165,-0.152 0.175,-0.134 0.188,-0.118C0.201,-0.102 0.218,-0.089 0.238,-0.08C0.257,-0.071 0.28,-0.066 0.305,-0.066C0.33,-0.066 0.353,-0.071 0.372,-0.08C0.392,-0.089 0.409,-0.102 0.422,-0.118C0.435,-0.134 0.446,-0.152 0.453,-0.173C0.46,-0.194 0.463,-0.215 0.463,-0.238Z" style="fill:white;fill-rule:nonzero;stroke:white;stroke-width:0.03px;stroke-linejoin:round;"/>
                    </g>
                    <g transform="matrix(10.302424,0,0,10.348019,117.376936,490.918059)">
                        <path d="M0.166,-0.474C0.167,-0.462 0.168,-0.448 0.169,-0.433C0.17,-0.419 0.17,-0.406 0.17,-0.396L0.173,-0.396C0.179,-0.409 0.187,-0.421 0.198,-0.431C0.208,-0.443 0.22,-0.452 0.233,-0.461C0.246,-0.469 0.261,-0.475 0.277,-0.48C0.293,-0.485 0.31,-0.487 0.327,-0.487C0.358,-0.487 0.384,-0.482 0.406,-0.472C0.428,-0.461 0.446,-0.447 0.461,-0.43C0.476,-0.413 0.486,-0.392 0.493,-0.369C0.501,-0.346 0.504,-0.321 0.504,-0.294L0.504,-0L0.41,-0L0.41,-0.263C0.41,-0.282 0.409,-0.301 0.406,-0.318C0.403,-0.335 0.397,-0.351 0.389,-0.364C0.381,-0.377 0.37,-0.388 0.356,-0.396C0.342,-0.404 0.324,-0.408 0.302,-0.408C0.265,-0.408 0.234,-0.394 0.21,-0.365C0.187,-0.337 0.175,-0.299 0.175,-0.252L0.175,-0L0.081,-0L0.081,-0.372C0.081,-0.385 0.081,-0.401 0.08,-0.421C0.079,-0.441 0.078,-0.459 0.077,-0.474L0.166,-0.474Z" style="fill:white;fill-rule:nonzero;stroke:white;stroke-width:0.03px;stroke-linejoin:round;"/>
                    </g>
                    <g transform="matrix(10.302424,0,0,10.348019,136.457025,490.918059)">
                        <path d="M0.8,-0.355C0.8,-0.3 0.791,-0.25 0.771,-0.205C0.752,-0.159 0.726,-0.12 0.693,-0.087C0.66,-0.053 0.62,-0.028 0.574,-0.009C0.528,0.009 0.478,0.018 0.424,0.018C0.37,0.018 0.32,0.009 0.275,-0.009C0.229,-0.028 0.189,-0.053 0.156,-0.087C0.123,-0.12 0.097,-0.159 0.078,-0.205C0.059,-0.25 0.05,-0.3 0.05,-0.355C0.05,-0.41 0.059,-0.461 0.078,-0.507C0.097,-0.552 0.123,-0.591 0.156,-0.624C0.189,-0.656 0.229,-0.681 0.275,-0.699C0.32,-0.717 0.37,-0.726 0.424,-0.726C0.478,-0.726 0.528,-0.717 0.574,-0.699C0.62,-0.681 0.66,-0.656 0.693,-0.624C0.726,-0.591 0.752,-0.552 0.771,-0.507C0.791,-0.461 0.8,-0.41 0.8,-0.355ZM0.693,-0.355C0.693,-0.394 0.687,-0.43 0.674,-0.465C0.661,-0.499 0.643,-0.529 0.62,-0.555C0.597,-0.581 0.568,-0.602 0.535,-0.617C0.502,-0.632 0.465,-0.639 0.424,-0.639C0.383,-0.639 0.346,-0.632 0.314,-0.617C0.281,-0.602 0.253,-0.581 0.23,-0.555C0.207,-0.529 0.189,-0.499 0.176,-0.465C0.163,-0.43 0.157,-0.394 0.157,-0.355C0.157,-0.316 0.163,-0.279 0.176,-0.244C0.189,-0.209 0.207,-0.179 0.23,-0.153C0.253,-0.128 0.281,-0.108 0.314,-0.093C0.347,-0.078 0.383,-0.071 0.424,-0.071C0.465,-0.071 0.502,-0.078 0.535,-0.093C0.568,-0.108 0.597,-0.128 0.62,-0.153C0.643,-0.179 0.661,-0.209 0.674,-0.244C0.687,-0.279 0.693,-0.316 0.693,-0.355Z" style="fill:white;fill-rule:nonzero;stroke:white;stroke-width:0.03px;stroke-linejoin:round;"/>
                    </g>
                    <g transform="matrix(10.302424,0,0,10.348019,146.543099,490.918059)">
                        <path d="M0.166,-0.474C0.167,-0.462 0.168,-0.448 0.169,-0.433C0.17,-0.419 0.17,-0.406 0.17,-0.396L0.173,-0.396C0.179,-0.409 0.187,-0.421 0.198,-0.431C0.208,-0.443 0.22,-0.452 0.233,-0.461C0.246,-0.469 0.261,-0.475 0.277,-0.48C0.293,-0.485 0.31,-0.487 0.327,-0.487C0.358,-0.487 0.384,-0.482 0.406,-0.472C0.428,-0.461 0.446,-0.447 0.461,-0.43C0.476,-0.413 0.486,-0.392 0.493,-0.369C0.501,-0.346 0.504,-0.321 0.504,-0.294L0.504,-0L0.41,-0L0.41,-0.263C0.41,-0.282 0.409,-0.301 0.406,-0.318C0.403,-0.335 0.397,-0.351 0.389,-0.364C0.381,-0.377 0.37,-0.388 0.356,-0.396C0.342,-0.404 0.324,-0.408 0.302,-0.408C0.265,-0.408 0.234,-0.394 0.21,-0.365C0.187,-0.337 0.175,-0.299 0.175,-0.252L0.175,-0L0.081,-0L0.081,-0.372C0.081,-0.385 0.081,-0.401 0.08,-0.421C0.079,-0.441 0.078,-0.459 0.077,-0.474L0.166,-0.474Z" style="fill:white;fill-rule:nonzero;stroke:white;stroke-width:0.03px;stroke-linejoin:round;"/>
                    </g>
                    <g transform="matrix(10.302424,0,0,10.348019,153.878425,490.918059)">
                        <path d="M0.428,-0.279C0.427,-0.298 0.424,-0.315 0.418,-0.332C0.413,-0.348 0.405,-0.362 0.394,-0.374C0.383,-0.386 0.369,-0.396 0.352,-0.403C0.336,-0.41 0.317,-0.413 0.295,-0.413C0.275,-0.413 0.256,-0.41 0.239,-0.403C0.221,-0.396 0.206,-0.386 0.193,-0.374C0.179,-0.362 0.169,-0.348 0.161,-0.332C0.152,-0.315 0.147,-0.298 0.146,-0.279L0.428,-0.279ZM0.523,-0.241L0.523,-0.225C0.523,-0.22 0.523,-0.214 0.522,-0.209L0.146,-0.209C0.147,-0.189 0.151,-0.17 0.16,-0.152C0.168,-0.135 0.179,-0.119 0.193,-0.106C0.207,-0.094 0.223,-0.083 0.241,-0.076C0.26,-0.069 0.279,-0.065 0.3,-0.065C0.332,-0.065 0.36,-0.072 0.383,-0.086C0.406,-0.1 0.425,-0.117 0.438,-0.137L0.504,-0.084C0.479,-0.051 0.449,-0.026 0.415,-0.011C0.38,0.005 0.342,0.013 0.3,0.013C0.264,0.013 0.231,0.007 0.2,-0.005C0.169,-0.017 0.143,-0.034 0.121,-0.056C0.099,-0.077 0.082,-0.103 0.069,-0.134C0.056,-0.165 0.05,-0.199 0.05,-0.236C0.05,-0.273 0.056,-0.306 0.069,-0.338C0.081,-0.369 0.098,-0.395 0.12,-0.417C0.142,-0.439 0.168,-0.456 0.198,-0.469C0.228,-0.481 0.26,-0.487 0.295,-0.487C0.33,-0.487 0.361,-0.481 0.39,-0.47C0.418,-0.459 0.442,-0.442 0.462,-0.421C0.481,-0.4 0.496,-0.374 0.507,-0.344C0.518,-0.313 0.523,-0.279 0.523,-0.241Z" style="fill:white;fill-rule:nonzero;stroke:white;stroke-width:0.03px;stroke-linejoin:round;"/>
                    </g>
                    <g transform="matrix(10.302424,0,0,10.348019,165.03595,490.918059)">
                        <path d="M0.166,-0.474C0.167,-0.462 0.168,-0.448 0.169,-0.433C0.17,-0.419 0.17,-0.406 0.17,-0.396L0.173,-0.396C0.179,-0.409 0.187,-0.421 0.198,-0.431C0.208,-0.443 0.22,-0.452 0.233,-0.461C0.246,-0.469 0.261,-0.475 0.277,-0.48C0.293,-0.485 0.31,-0.487 0.327,-0.487C0.358,-0.487 0.384,-0.482 0.406,-0.472C0.428,-0.461 0.446,-0.447 0.461,-0.43C0.476,-0.413 0.486,-0.392 0.493,-0.369C0.501,-0.346 0.504,-0.321 0.504,-0.294L0.504,-0L0.41,-0L0.41,-0.263C0.41,-0.282 0.409,-0.301 0.406,-0.318C0.403,-0.335 0.397,-0.351 0.389,-0.364C0.381,-0.377 0.37,-0.388 0.356,-0.396C0.342,-0.404 0.324,-0.408 0.302,-0.408C0.265,-0.408 0.234,-0.394 0.21,-0.365C0.187,-0.337 0.175,-0.299 0.175,-0.252L0.175,-0L0.081,-0L0.081,-0.372C0.081,-0.385 0.081,-0.401 0.08,-0.421C0.079,-0.441 0.078,-0.459 0.077,-0.474L0.166,-0.474Z" style="fill:white;fill-rule:nonzero;stroke:white;stroke-width:0.03px;stroke-linejoin:round;"/>
                    </g>
                    <g transform="matrix(10.302424,0,0,10.348019,172.371276,490.918059)">
                        <path d="M0.561,-0.238C0.561,-0.201 0.554,-0.168 0.541,-0.137C0.529,-0.106 0.511,-0.08 0.487,-0.058C0.464,-0.035 0.437,-0.018 0.406,-0.005C0.375,0.007 0.341,0.013 0.305,0.013C0.269,0.013 0.235,0.007 0.204,-0.005C0.173,-0.018 0.146,-0.035 0.123,-0.058C0.1,-0.08 0.083,-0.106 0.07,-0.137C0.057,-0.168 0.05,-0.201 0.05,-0.238C0.05,-0.275 0.057,-0.308 0.07,-0.339C0.083,-0.369 0.1,-0.395 0.123,-0.417C0.146,-0.439 0.173,-0.456 0.204,-0.469C0.235,-0.481 0.269,-0.487 0.305,-0.487C0.341,-0.487 0.375,-0.481 0.406,-0.469C0.437,-0.456 0.464,-0.439 0.487,-0.417C0.511,-0.395 0.529,-0.369 0.541,-0.339C0.554,-0.308 0.561,-0.275 0.561,-0.238ZM0.463,-0.238C0.463,-0.261 0.46,-0.282 0.453,-0.303C0.446,-0.324 0.435,-0.342 0.422,-0.357C0.409,-0.373 0.392,-0.386 0.372,-0.395C0.353,-0.404 0.33,-0.409 0.305,-0.409C0.28,-0.409 0.257,-0.404 0.238,-0.395C0.218,-0.386 0.201,-0.373 0.188,-0.357C0.175,-0.342 0.165,-0.324 0.158,-0.303C0.15,-0.282 0.147,-0.261 0.147,-0.238C0.147,-0.215 0.15,-0.194 0.158,-0.173C0.165,-0.152 0.175,-0.134 0.188,-0.118C0.201,-0.102 0.218,-0.089 0.238,-0.08C0.257,-0.071 0.28,-0.066 0.305,-0.066C0.33,-0.066 0.353,-0.071 0.372,-0.08C0.392,-0.089 0.409,-0.102 0.422,-0.118C0.435,-0.134 0.446,-0.152 0.453,-0.173C0.46,-0.194 0.463,-0.215 0.463,-0.238Z" style="fill:white;fill-rule:nonzero;stroke:white;stroke-width:0.03px;stroke-linejoin:round;"/>
                    </g>
                    <g transform="matrix(10.302424,0,0,10.348019,179.99507,490.918059)">
                        <path d="M0.459,-0.075C0.441,-0.046 0.417,-0.024 0.386,-0.009C0.355,0.006 0.322,0.013 0.288,0.013C0.251,0.013 0.218,0.007 0.189,-0.007C0.16,-0.019 0.135,-0.037 0.114,-0.06C0.093,-0.083 0.077,-0.109 0.066,-0.14C0.055,-0.171 0.049,-0.203 0.049,-0.238C0.049,-0.273 0.055,-0.305 0.066,-0.336C0.077,-0.366 0.094,-0.392 0.115,-0.415C0.135,-0.438 0.161,-0.455 0.19,-0.468C0.219,-0.481 0.252,-0.487 0.287,-0.487C0.326,-0.487 0.359,-0.479 0.388,-0.463C0.417,-0.446 0.439,-0.426 0.456,-0.403L0.458,-0.403L0.458,-0.756L0.552,-0.756L0.552,-0L0.461,-0L0.461,-0.075L0.459,-0.075ZM0.147,-0.238C0.147,-0.216 0.15,-0.195 0.157,-0.174C0.164,-0.153 0.174,-0.135 0.187,-0.119C0.2,-0.103 0.217,-0.09 0.236,-0.081C0.255,-0.071 0.278,-0.066 0.304,-0.066C0.328,-0.066 0.35,-0.071 0.369,-0.08C0.389,-0.089 0.406,-0.102 0.42,-0.118C0.434,-0.133 0.445,-0.151 0.453,-0.172C0.46,-0.193 0.464,-0.214 0.464,-0.237C0.464,-0.26 0.46,-0.281 0.453,-0.302C0.445,-0.323 0.434,-0.341 0.42,-0.357C0.406,-0.373 0.389,-0.386 0.369,-0.395C0.35,-0.404 0.328,-0.409 0.304,-0.409C0.278,-0.409 0.255,-0.404 0.236,-0.395C0.217,-0.386 0.2,-0.373 0.187,-0.357C0.174,-0.341 0.164,-0.323 0.157,-0.302C0.15,-0.281 0.147,-0.26 0.147,-0.238Z" style="fill:white;fill-rule:nonzero;stroke:white;stroke-width:0.03px;stroke-linejoin:round;"/>
                    </g>
                    <g transform="matrix(10.302424,0,0,10.348019,187.876425,490.918059)">
                        <path d="M0.428,-0.279C0.427,-0.298 0.424,-0.315 0.418,-0.332C0.413,-0.348 0.405,-0.362 0.394,-0.374C0.383,-0.386 0.369,-0.396 0.352,-0.403C0.336,-0.41 0.317,-0.413 0.295,-0.413C0.275,-0.413 0.256,-0.41 0.239,-0.403C0.221,-0.396 0.206,-0.386 0.193,-0.374C0.179,-0.362 0.169,-0.348 0.161,-0.332C0.152,-0.315 0.147,-0.298 0.146,-0.279L0.428,-0.279ZM0.523,-0.241L0.523,-0.225C0.523,-0.22 0.523,-0.214 0.522,-0.209L0.146,-0.209C0.147,-0.189 0.151,-0.17 0.16,-0.152C0.168,-0.135 0.179,-0.119 0.193,-0.106C0.207,-0.094 0.223,-0.083 0.241,-0.076C0.26,-0.069 0.279,-0.065 0.3,-0.065C0.332,-0.065 0.36,-0.072 0.383,-0.086C0.406,-0.1 0.425,-0.117 0.438,-0.137L0.504,-0.084C0.479,-0.051 0.449,-0.026 0.415,-0.011C0.38,0.005 0.342,0.013 0.3,0.013C0.264,0.013 0.231,0.007 0.2,-0.005C0.169,-0.017 0.143,-0.034 0.121,-0.056C0.099,-0.077 0.082,-0.103 0.069,-0.134C0.056,-0.165 0.05,-0.199 0.05,-0.236C0.05,-0.273 0.056,-0.306 0.069,-0.338C0.081,-0.369 0.098,-0.395 0.12,-0.417C0.142,-0.439 0.168,-0.456 0.198,-0.469C0.228,-0.481 0.26,-0.487 0.295,-0.487C0.33,-0.487 0.361,-0.481 0.39,-0.47C0.418,-0.459 0.442,-0.442 0.462,-0.421C0.481,-0.4 0.496,-0.374 0.507,-0.344C0.518,-0.313 0.523,-0.279 0.523,-0.241Z" style="fill:white;fill-rule:nonzero;stroke:white;stroke-width:0.03px;stroke-linejoin:round;"/>
                    </g>
                    <g transform="matrix(10.302424,0,0,10.348019,206.863793,490.918059)">
                        <path d="M0.553,-0.621L0.153,-0.088L0.559,-0.088L0.559,-0L0.033,-0L0.033,-0.087L0.432,-0.621L0.041,-0.621L0.041,-0.708L0.553,-0.708L0.553,-0.621Z" style="fill:white;fill-rule:nonzero;stroke:white;stroke-width:0.03px;stroke-linejoin:round;"/>
                    </g>
                    <g transform="matrix(10.302424,0,0,10.348019,214.177967,490.918059)">
                        <path d="M0.428,-0.279C0.427,-0.298 0.424,-0.315 0.418,-0.332C0.413,-0.348 0.405,-0.362 0.394,-0.374C0.383,-0.386 0.369,-0.396 0.352,-0.403C0.336,-0.41 0.317,-0.413 0.295,-0.413C0.275,-0.413 0.256,-0.41 0.239,-0.403C0.221,-0.396 0.206,-0.386 0.193,-0.374C0.179,-0.362 0.169,-0.348 0.161,-0.332C0.152,-0.315 0.147,-0.298 0.146,-0.279L0.428,-0.279ZM0.523,-0.241L0.523,-0.225C0.523,-0.22 0.523,-0.214 0.522,-0.209L0.146,-0.209C0.147,-0.189 0.151,-0.17 0.16,-0.152C0.168,-0.135 0.179,-0.119 0.193,-0.106C0.207,-0.094 0.223,-0.083 0.241,-0.076C0.26,-0.069 0.279,-0.065 0.3,-0.065C0.332,-0.065 0.36,-0.072 0.383,-0.086C0.406,-0.1 0.425,-0.117 0.438,-0.137L0.504,-0.084C0.479,-0.051 0.449,-0.026 0.415,-0.011C0.38,0.005 0.342,0.013 0.3,0.013C0.264,0.013 0.231,0.007 0.2,-0.005C0.169,-0.017 0.143,-0.034 0.121,-0.056C0.099,-0.077 0.082,-0.103 0.069,-0.134C0.056,-0.165 0.05,-0.199 0.05,-0.236C0.05,-0.273 0.056,-0.306 0.069,-0.338C0.081,-0.369 0.098,-0.395 0.12,-0.417C0.142,-0.439 0.168,-0.456 0.198,-0.469C0.228,-0.481 0.26,-0.487 0.295,-0.487C0.33,-0.487 0.361,-0.481 0.39,-0.47C0.418,-0.459 0.442,-0.442 0.462,-0.421C0.481,-0.4 0.496,-0.374 0.507,-0.344C0.518,-0.313 0.523,-0.279 0.523,-0.241Z" style="fill:white;fill-rule:nonzero;stroke:white;stroke-width:0.03px;stroke-linejoin:round;"/>
                    </g>
                    <g transform="matrix(10.302424,0,0,10.348019,221.420571,490.918059)">
                        <path d="M0.081,-0.372C0.081,-0.385 0.081,-0.401 0.08,-0.421C0.079,-0.441 0.078,-0.459 0.077,-0.474L0.166,-0.474C0.167,-0.462 0.168,-0.448 0.169,-0.432C0.17,-0.417 0.17,-0.404 0.17,-0.394L0.173,-0.394C0.186,-0.422 0.206,-0.444 0.232,-0.462C0.257,-0.478 0.286,-0.487 0.318,-0.487C0.333,-0.487 0.345,-0.486 0.355,-0.483L0.351,-0.396C0.338,-0.399 0.323,-0.401 0.308,-0.401C0.285,-0.401 0.266,-0.397 0.249,-0.389C0.232,-0.38 0.218,-0.369 0.208,-0.355C0.197,-0.341 0.188,-0.325 0.183,-0.306C0.178,-0.288 0.175,-0.269 0.175,-0.249L0.175,-0L0.081,-0L0.081,-0.372Z" style="fill:white;fill-rule:nonzero;stroke:white;stroke-width:0.03px;stroke-linejoin:round;"/>
                    </g>
                    <g transform="matrix(10.302424,0,0,10.348019,226.303099,490.918059)">
                        <path d="M0.561,-0.238C0.561,-0.201 0.554,-0.168 0.541,-0.137C0.529,-0.106 0.511,-0.08 0.487,-0.058C0.464,-0.035 0.437,-0.018 0.406,-0.005C0.375,0.007 0.341,0.013 0.305,0.013C0.269,0.013 0.235,0.007 0.204,-0.005C0.173,-0.018 0.146,-0.035 0.123,-0.058C0.1,-0.08 0.083,-0.106 0.07,-0.137C0.057,-0.168 0.05,-0.201 0.05,-0.238C0.05,-0.275 0.057,-0.308 0.07,-0.339C0.083,-0.369 0.1,-0.395 0.123,-0.417C0.146,-0.439 0.173,-0.456 0.204,-0.469C0.235,-0.481 0.269,-0.487 0.305,-0.487C0.341,-0.487 0.375,-0.481 0.406,-0.469C0.437,-0.456 0.464,-0.439 0.487,-0.417C0.511,-0.395 0.529,-0.369 0.541,-0.339C0.554,-0.308 0.561,-0.275 0.561,-0.238ZM0.463,-0.238C0.463,-0.261 0.46,-0.282 0.453,-0.303C0.446,-0.324 0.435,-0.342 0.422,-0.357C0.409,-0.373 0.392,-0.386 0.372,-0.395C0.353,-0.404 0.33,-0.409 0.305,-0.409C0.28,-0.409 0.257,-0.404 0.238,-0.395C0.218,-0.386 0.201,-0.373 0.188,-0.357C0.175,-0.342 0.165,-0.324 0.158,-0.303C0.15,-0.282 0.147,-0.261 0.147,-0.238C0.147,-0.215 0.15,-0.194 0.158,-0.173C0.165,-0.152 0.175,-0.134 0.188,-0.118C0.201,-0.102 0.218,-0.089 0.238,-0.08C0.257,-0.071 0.28,-0.066 0.305,-0.066C0.33,-0.066 0.353,-0.071 0.372,-0.08C0.392,-0.089 0.409,-0.102 0.422,-0.118C0.435,-0.134 0.446,-0.152 0.453,-0.173C0.46,-0.194 0.463,-0.215 0.463,-0.238Z" style="fill:white;fill-rule:nonzero;stroke:white;stroke-width:0.03px;stroke-linejoin:round;"/>
                    </g>
                    <g transform="matrix(10.302424,0,0,10.348019,237.841814,490.918059)">
                        <path d="M0.459,-0.075C0.441,-0.046 0.417,-0.024 0.386,-0.009C0.355,0.006 0.322,0.013 0.288,0.013C0.251,0.013 0.218,0.007 0.189,-0.007C0.16,-0.019 0.135,-0.037 0.114,-0.06C0.093,-0.083 0.077,-0.109 0.066,-0.14C0.055,-0.171 0.049,-0.203 0.049,-0.238C0.049,-0.273 0.055,-0.305 0.066,-0.336C0.077,-0.366 0.094,-0.392 0.115,-0.415C0.135,-0.438 0.161,-0.455 0.19,-0.468C0.219,-0.481 0.252,-0.487 0.287,-0.487C0.326,-0.487 0.359,-0.479 0.388,-0.463C0.417,-0.446 0.439,-0.426 0.456,-0.403L0.458,-0.403L0.458,-0.756L0.552,-0.756L0.552,-0L0.461,-0L0.461,-0.075L0.459,-0.075ZM0.147,-0.238C0.147,-0.216 0.15,-0.195 0.157,-0.174C0.164,-0.153 0.174,-0.135 0.187,-0.119C0.2,-0.103 0.217,-0.09 0.236,-0.081C0.255,-0.071 0.278,-0.066 0.304,-0.066C0.328,-0.066 0.35,-0.071 0.369,-0.08C0.389,-0.089 0.406,-0.102 0.42,-0.118C0.434,-0.133 0.445,-0.151 0.453,-0.172C0.46,-0.193 0.464,-0.214 0.464,-0.237C0.464,-0.26 0.46,-0.281 0.453,-0.302C0.445,-0.323 0.434,-0.341 0.42,-0.357C0.406,-0.373 0.389,-0.386 0.369,-0.395C0.35,-0.404 0.328,-0.409 0.304,-0.409C0.278,-0.409 0.255,-0.404 0.236,-0.395C0.217,-0.386 0.2,-0.373 0.187,-0.357C0.174,-0.341 0.164,-0.323 0.157,-0.302C0.15,-0.281 0.147,-0.26 0.147,-0.238Z" style="fill:white;fill-rule:nonzero;stroke:white;stroke-width:0.03px;stroke-linejoin:round;"/>
                    </g>
                    <g transform="matrix(10.302424,0,0,10.348019,245.723169,490.918059)">
                        <path d="M0.376,-0.307C0.376,-0.342 0.365,-0.368 0.344,-0.386C0.323,-0.403 0.294,-0.411 0.259,-0.411C0.232,-0.411 0.207,-0.406 0.183,-0.396C0.16,-0.385 0.14,-0.372 0.124,-0.356L0.074,-0.416C0.097,-0.438 0.126,-0.455 0.16,-0.468C0.193,-0.481 0.229,-0.487 0.268,-0.487C0.302,-0.487 0.331,-0.482 0.356,-0.473C0.382,-0.463 0.402,-0.45 0.418,-0.433C0.434,-0.416 0.446,-0.397 0.454,-0.374C0.462,-0.351 0.466,-0.327 0.466,-0.301L0.466,-0.094C0.466,-0.078 0.467,-0.061 0.468,-0.044C0.468,-0.026 0.47,-0.011 0.473,-0L0.388,-0C0.383,-0.023 0.38,-0.045 0.38,-0.068L0.377,-0.068C0.36,-0.043 0.338,-0.023 0.311,-0.009C0.285,0.005 0.254,0.012 0.218,0.012C0.199,0.012 0.18,0.009 0.16,0.005C0.139,-0 0.121,-0.009 0.104,-0.02C0.087,-0.031 0.073,-0.046 0.062,-0.065C0.051,-0.084 0.046,-0.107 0.046,-0.134C0.046,-0.17 0.056,-0.199 0.075,-0.22C0.094,-0.241 0.12,-0.257 0.151,-0.268C0.182,-0.279 0.218,-0.286 0.257,-0.289C0.296,-0.292 0.336,-0.294 0.376,-0.294L0.376,-0.307ZM0.353,-0.226C0.33,-0.226 0.306,-0.225 0.281,-0.223C0.256,-0.221 0.233,-0.217 0.212,-0.211C0.192,-0.205 0.175,-0.196 0.162,-0.184C0.149,-0.172 0.142,-0.156 0.142,-0.136C0.142,-0.122 0.145,-0.11 0.15,-0.101C0.156,-0.092 0.164,-0.084 0.173,-0.078C0.182,-0.072 0.193,-0.068 0.204,-0.066C0.215,-0.063 0.227,-0.062 0.239,-0.062C0.283,-0.062 0.317,-0.075 0.341,-0.102C0.364,-0.128 0.376,-0.161 0.376,-0.201L0.376,-0.226L0.353,-0.226Z" style="fill:white;fill-rule:nonzero;stroke:white;stroke-width:0.03px;stroke-linejoin:round;"/>
                    </g>
                    <g transform="matrix(10.302424,0,0,10.348019,252.542918,490.918059)">
                        <path d="M0.313,-0.397L0.187,-0.397L0.187,-0.15C0.187,-0.121 0.192,-0.101 0.203,-0.088C0.214,-0.076 0.231,-0.07 0.254,-0.07C0.263,-0.07 0.272,-0.071 0.282,-0.073C0.292,-0.075 0.301,-0.078 0.309,-0.082L0.312,-0.005C0.301,-0.001 0.288,0.002 0.275,0.005C0.261,0.007 0.247,0.008 0.232,0.008C0.187,0.008 0.153,-0.004 0.13,-0.029C0.106,-0.054 0.094,-0.091 0.094,-0.14L0.094,-0.397L0.003,-0.397L0.003,-0.474L0.094,-0.474L0.094,-0.61L0.187,-0.61L0.187,-0.474L0.313,-0.474L0.313,-0.397Z" style="fill:white;fill-rule:nonzero;stroke:white;stroke-width:0.03px;stroke-linejoin:round;"/>
                    </g>
                    <g transform="matrix(10.302424,0,0,10.348019,257.27173,490.918059)">
                        <path d="M0.376,-0.307C0.376,-0.342 0.365,-0.368 0.344,-0.386C0.323,-0.403 0.294,-0.411 0.259,-0.411C0.232,-0.411 0.207,-0.406 0.183,-0.396C0.16,-0.385 0.14,-0.372 0.124,-0.356L0.074,-0.416C0.097,-0.438 0.126,-0.455 0.16,-0.468C0.193,-0.481 0.229,-0.487 0.268,-0.487C0.302,-0.487 0.331,-0.482 0.356,-0.473C0.382,-0.463 0.402,-0.45 0.418,-0.433C0.434,-0.416 0.446,-0.397 0.454,-0.374C0.462,-0.351 0.466,-0.327 0.466,-0.301L0.466,-0.094C0.466,-0.078 0.467,-0.061 0.468,-0.044C0.468,-0.026 0.47,-0.011 0.473,-0L0.388,-0C0.383,-0.023 0.38,-0.045 0.38,-0.068L0.377,-0.068C0.36,-0.043 0.338,-0.023 0.311,-0.009C0.285,0.005 0.254,0.012 0.218,0.012C0.199,0.012 0.18,0.009 0.16,0.005C0.139,-0 0.121,-0.009 0.104,-0.02C0.087,-0.031 0.073,-0.046 0.062,-0.065C0.051,-0.084 0.046,-0.107 0.046,-0.134C0.046,-0.17 0.056,-0.199 0.075,-0.22C0.094,-0.241 0.12,-0.257 0.151,-0.268C0.182,-0.279 0.218,-0.286 0.257,-0.289C0.296,-0.292 0.336,-0.294 0.376,-0.294L0.376,-0.307ZM0.353,-0.226C0.33,-0.226 0.306,-0.225 0.281,-0.223C0.256,-0.221 0.233,-0.217 0.212,-0.211C0.192,-0.205 0.175,-0.196 0.162,-0.184C0.149,-0.172 0.142,-0.156 0.142,-0.136C0.142,-0.122 0.145,-0.11 0.15,-0.101C0.156,-0.092 0.164,-0.084 0.173,-0.078C0.182,-0.072 0.193,-0.068 0.204,-0.066C0.215,-0.063 0.227,-0.062 0.239,-0.062C0.283,-0.062 0.317,-0.075 0.341,-0.102C0.364,-0.128 0.376,-0.161 0.376,-0.201L0.376,-0.226L0.353,-0.226Z" style="fill:white;fill-rule:nonzero;stroke:white;stroke-width:0.03px;stroke-linejoin:round;"/>
                    </g>
                    <g transform="matrix(10.302424,0,0,10.348019,268.109881,490.918059)">
                        <path d="M0.428,-0.279C0.427,-0.298 0.424,-0.315 0.418,-0.332C0.413,-0.348 0.405,-0.362 0.394,-0.374C0.383,-0.386 0.369,-0.396 0.352,-0.403C0.336,-0.41 0.317,-0.413 0.295,-0.413C0.275,-0.413 0.256,-0.41 0.239,-0.403C0.221,-0.396 0.206,-0.386 0.193,-0.374C0.179,-0.362 0.169,-0.348 0.161,-0.332C0.152,-0.315 0.147,-0.298 0.146,-0.279L0.428,-0.279ZM0.523,-0.241L0.523,-0.225C0.523,-0.22 0.523,-0.214 0.522,-0.209L0.146,-0.209C0.147,-0.189 0.151,-0.17 0.16,-0.152C0.168,-0.135 0.179,-0.119 0.193,-0.106C0.207,-0.094 0.223,-0.083 0.241,-0.076C0.26,-0.069 0.279,-0.065 0.3,-0.065C0.332,-0.065 0.36,-0.072 0.383,-0.086C0.406,-0.1 0.425,-0.117 0.438,-0.137L0.504,-0.084C0.479,-0.051 0.449,-0.026 0.415,-0.011C0.38,0.005 0.342,0.013 0.3,0.013C0.264,0.013 0.231,0.007 0.2,-0.005C0.169,-0.017 0.143,-0.034 0.121,-0.056C0.099,-0.077 0.082,-0.103 0.069,-0.134C0.056,-0.165 0.05,-0.199 0.05,-0.236C0.05,-0.273 0.056,-0.306 0.069,-0.338C0.081,-0.369 0.098,-0.395 0.12,-0.417C0.142,-0.439 0.168,-0.456 0.198,-0.469C0.228,-0.481 0.26,-0.487 0.295,-0.487C0.33,-0.487 0.361,-0.481 0.39,-0.47C0.418,-0.459 0.442,-0.442 0.462,-0.421C0.481,-0.4 0.496,-0.374 0.507,-0.344C0.518,-0.313 0.523,-0.279 0.523,-0.241Z" style="fill:white;fill-rule:nonzero;stroke:white;stroke-width:0.03px;stroke-linejoin:round;"/>
                    </g>
                    <g transform="matrix(10.302424,0,0,10.348019,275.249005,490.918059)">
                        <path d="M0.197,-0.249L0.024,-0.474L0.14,-0.474L0.256,-0.311L0.373,-0.474L0.483,-0.474L0.312,-0.25L0.503,-0L0.386,-0L0.254,-0.185L0.12,-0L0.007,-0L0.197,-0.249Z" style="fill:white;fill-rule:nonzero;stroke:white;stroke-width:0.03px;stroke-linejoin:round;"/>
                    </g>
                    <g transform="matrix(10.302424,0,0,10.348019,281.852859,490.918059)">
                        <path d="M0.175,0.24L0.081,0.24L0.081,-0.474L0.173,-0.474L0.173,-0.4L0.176,-0.4C0.191,-0.425 0.214,-0.446 0.243,-0.463C0.273,-0.479 0.308,-0.487 0.347,-0.487C0.382,-0.487 0.415,-0.481 0.444,-0.468C0.472,-0.455 0.497,-0.438 0.518,-0.415C0.539,-0.392 0.556,-0.366 0.567,-0.336C0.578,-0.305 0.584,-0.273 0.584,-0.238C0.584,-0.203 0.578,-0.171 0.567,-0.14C0.556,-0.109 0.54,-0.083 0.519,-0.06C0.498,-0.037 0.473,-0.019 0.444,-0.007C0.415,0.007 0.382,0.013 0.345,0.013C0.311,0.013 0.279,0.006 0.249,-0.009C0.219,-0.024 0.195,-0.044 0.178,-0.071L0.175,-0.071L0.175,0.24ZM0.487,-0.238C0.487,-0.26 0.484,-0.281 0.477,-0.302C0.47,-0.323 0.46,-0.341 0.447,-0.357C0.434,-0.373 0.417,-0.386 0.398,-0.395C0.378,-0.404 0.355,-0.409 0.329,-0.409C0.305,-0.409 0.283,-0.404 0.264,-0.395C0.244,-0.386 0.227,-0.373 0.213,-0.357C0.199,-0.341 0.188,-0.323 0.18,-0.302C0.173,-0.281 0.169,-0.26 0.169,-0.237C0.169,-0.214 0.173,-0.193 0.18,-0.172C0.188,-0.151 0.199,-0.133 0.213,-0.118C0.227,-0.102 0.244,-0.089 0.264,-0.08C0.283,-0.071 0.305,-0.066 0.329,-0.066C0.355,-0.066 0.378,-0.071 0.398,-0.081C0.417,-0.09 0.434,-0.103 0.447,-0.119C0.46,-0.135 0.47,-0.153 0.477,-0.174C0.484,-0.195 0.487,-0.216 0.487,-0.238Z" style="fill:white;fill-rule:nonzero;stroke:white;stroke-width:0.03px;stroke-linejoin:round;"/>
                    </g>
                    <g transform="matrix(10.302424,0,0,10.348019,289.723911,490.918059)">
                        <path d="M0.561,-0.238C0.561,-0.201 0.554,-0.168 0.541,-0.137C0.529,-0.106 0.511,-0.08 0.487,-0.058C0.464,-0.035 0.437,-0.018 0.406,-0.005C0.375,0.007 0.341,0.013 0.305,0.013C0.269,0.013 0.235,0.007 0.204,-0.005C0.173,-0.018 0.146,-0.035 0.123,-0.058C0.1,-0.08 0.083,-0.106 0.07,-0.137C0.057,-0.168 0.05,-0.201 0.05,-0.238C0.05,-0.275 0.057,-0.308 0.07,-0.339C0.083,-0.369 0.1,-0.395 0.123,-0.417C0.146,-0.439 0.173,-0.456 0.204,-0.469C0.235,-0.481 0.269,-0.487 0.305,-0.487C0.341,-0.487 0.375,-0.481 0.406,-0.469C0.437,-0.456 0.464,-0.439 0.487,-0.417C0.511,-0.395 0.529,-0.369 0.541,-0.339C0.554,-0.308 0.561,-0.275 0.561,-0.238ZM0.463,-0.238C0.463,-0.261 0.46,-0.282 0.453,-0.303C0.446,-0.324 0.435,-0.342 0.422,-0.357C0.409,-0.373 0.392,-0.386 0.372,-0.395C0.353,-0.404 0.33,-0.409 0.305,-0.409C0.28,-0.409 0.257,-0.404 0.238,-0.395C0.218,-0.386 0.201,-0.373 0.188,-0.357C0.175,-0.342 0.165,-0.324 0.158,-0.303C0.15,-0.282 0.147,-0.261 0.147,-0.238C0.147,-0.215 0.15,-0.194 0.158,-0.173C0.165,-0.152 0.175,-0.134 0.188,-0.118C0.201,-0.102 0.218,-0.089 0.238,-0.08C0.257,-0.071 0.28,-0.066 0.305,-0.066C0.33,-0.066 0.353,-0.071 0.372,-0.08C0.392,-0.089 0.409,-0.102 0.422,-0.118C0.435,-0.134 0.446,-0.152 0.453,-0.173C0.46,-0.194 0.463,-0.215 0.463,-0.238Z" style="fill:white;fill-rule:nonzero;stroke:white;stroke-width:0.03px;stroke-linejoin:round;"/>
                    </g>
                    <g transform="matrix(10.302424,0,0,10.348019,297.347705,490.918059)">
                        <path d="M0.337,-0.354C0.326,-0.371 0.311,-0.386 0.292,-0.397C0.273,-0.408 0.251,-0.413 0.227,-0.413C0.216,-0.413 0.206,-0.412 0.195,-0.41C0.184,-0.407 0.175,-0.404 0.167,-0.399C0.158,-0.394 0.151,-0.387 0.146,-0.38C0.141,-0.372 0.139,-0.362 0.139,-0.351C0.139,-0.331 0.148,-0.316 0.166,-0.306C0.184,-0.297 0.211,-0.288 0.247,-0.28C0.27,-0.275 0.291,-0.268 0.31,-0.261C0.329,-0.254 0.346,-0.245 0.36,-0.234C0.375,-0.223 0.386,-0.209 0.394,-0.194C0.402,-0.179 0.406,-0.161 0.406,-0.14C0.406,-0.112 0.401,-0.088 0.39,-0.069C0.379,-0.05 0.365,-0.034 0.348,-0.022C0.33,-0.009 0.31,-0 0.287,0.005C0.264,0.01 0.241,0.013 0.217,0.013C0.181,0.013 0.146,0.006 0.112,-0.008C0.077,-0.022 0.049,-0.043 0.026,-0.072L0.093,-0.129C0.106,-0.11 0.123,-0.095 0.145,-0.082C0.168,-0.069 0.192,-0.063 0.219,-0.063C0.231,-0.063 0.243,-0.064 0.254,-0.067C0.265,-0.069 0.275,-0.073 0.284,-0.078C0.292,-0.083 0.3,-0.09 0.305,-0.099C0.31,-0.108 0.313,-0.119 0.313,-0.132C0.313,-0.154 0.302,-0.17 0.282,-0.181C0.261,-0.192 0.23,-0.202 0.189,-0.211C0.173,-0.215 0.157,-0.22 0.141,-0.226C0.124,-0.231 0.109,-0.239 0.096,-0.249C0.083,-0.259 0.072,-0.272 0.064,-0.287C0.055,-0.302 0.051,-0.32 0.051,-0.342C0.051,-0.367 0.056,-0.389 0.067,-0.408C0.077,-0.426 0.09,-0.441 0.107,-0.453C0.124,-0.464 0.143,-0.473 0.164,-0.479C0.185,-0.484 0.207,-0.487 0.23,-0.487C0.264,-0.487 0.297,-0.48 0.329,-0.467C0.36,-0.454 0.385,-0.434 0.402,-0.409L0.337,-0.354Z" style="fill:white;fill-rule:nonzero;stroke:white;stroke-width:0.03px;stroke-linejoin:round;"/>
                    </g>
                    <g transform="matrix(10.302424,0,0,10.348019,303.261296,490.918059)">
                        <path d="M0.428,-0.279C0.427,-0.298 0.424,-0.315 0.418,-0.332C0.413,-0.348 0.405,-0.362 0.394,-0.374C0.383,-0.386 0.369,-0.396 0.352,-0.403C0.336,-0.41 0.317,-0.413 0.295,-0.413C0.275,-0.413 0.256,-0.41 0.239,-0.403C0.221,-0.396 0.206,-0.386 0.193,-0.374C0.179,-0.362 0.169,-0.348 0.161,-0.332C0.152,-0.315 0.147,-0.298 0.146,-0.279L0.428,-0.279ZM0.523,-0.241L0.523,-0.225C0.523,-0.22 0.523,-0.214 0.522,-0.209L0.146,-0.209C0.147,-0.189 0.151,-0.17 0.16,-0.152C0.168,-0.135 0.179,-0.119 0.193,-0.106C0.207,-0.094 0.223,-0.083 0.241,-0.076C0.26,-0.069 0.279,-0.065 0.3,-0.065C0.332,-0.065 0.36,-0.072 0.383,-0.086C0.406,-0.1 0.425,-0.117 0.438,-0.137L0.504,-0.084C0.479,-0.051 0.449,-0.026 0.415,-0.011C0.38,0.005 0.342,0.013 0.3,0.013C0.264,0.013 0.231,0.007 0.2,-0.005C0.169,-0.017 0.143,-0.034 0.121,-0.056C0.099,-0.077 0.082,-0.103 0.069,-0.134C0.056,-0.165 0.05,-0.199 0.05,-0.236C0.05,-0.273 0.056,-0.306 0.069,-0.338C0.081,-0.369 0.098,-0.395 0.12,-0.417C0.142,-0.439 0.168,-0.456 0.198,-0.469C0.228,-0.481 0.26,-0.487 0.295,-0.487C0.33,-0.487 0.361,-0.481 0.39,-0.47C0.418,-0.459 0.442,-0.442 0.462,-0.421C0.481,-0.4 0.496,-0.374 0.507,-0.344C0.518,-0.313 0.523,-0.279 0.523,-0.241Z" style="fill:white;fill-rule:nonzero;stroke:white;stroke-width:0.03px;stroke-linejoin:round;"/>
                    </g>
                    <g transform="matrix(10.302424,0,0,10.348019,310.5039,490.918059)">
                        <path d="M0.459,-0.075C0.441,-0.046 0.417,-0.024 0.386,-0.009C0.355,0.006 0.322,0.013 0.288,0.013C0.251,0.013 0.218,0.007 0.189,-0.007C0.16,-0.019 0.135,-0.037 0.114,-0.06C0.093,-0.083 0.077,-0.109 0.066,-0.14C0.055,-0.171 0.049,-0.203 0.049,-0.238C0.049,-0.273 0.055,-0.305 0.066,-0.336C0.077,-0.366 0.094,-0.392 0.115,-0.415C0.135,-0.438 0.161,-0.455 0.19,-0.468C0.219,-0.481 0.252,-0.487 0.287,-0.487C0.326,-0.487 0.359,-0.479 0.388,-0.463C0.417,-0.446 0.439,-0.426 0.456,-0.403L0.458,-0.403L0.458,-0.756L0.552,-0.756L0.552,-0L0.461,-0L0.461,-0.075L0.459,-0.075ZM0.147,-0.238C0.147,-0.216 0.15,-0.195 0.157,-0.174C0.164,-0.153 0.174,-0.135 0.187,-0.119C0.2,-0.103 0.217,-0.09 0.236,-0.081C0.255,-0.071 0.278,-0.066 0.304,-0.066C0.328,-0.066 0.35,-0.071 0.369,-0.08C0.389,-0.089 0.406,-0.102 0.42,-0.118C0.434,-0.133 0.445,-0.151 0.453,-0.172C0.46,-0.193 0.464,-0.214 0.464,-0.237C0.464,-0.26 0.46,-0.281 0.453,-0.302C0.445,-0.323 0.434,-0.341 0.42,-0.357C0.406,-0.373 0.389,-0.386 0.369,-0.395C0.35,-0.404 0.328,-0.409 0.304,-0.409C0.278,-0.409 0.255,-0.404 0.236,-0.395C0.217,-0.386 0.2,-0.373 0.187,-0.357C0.174,-0.341 0.164,-0.323 0.157,-0.302C0.15,-0.281 0.147,-0.26 0.147,-0.238Z" style="fill:white;fill-rule:nonzero;stroke:white;stroke-width:0.03px;stroke-linejoin:round;"/>
                    </g>
                </g>
            </g>
            <g transform="matrix(1,0,0,1,7.208379,0)">
                <g transform="matrix(0.765723,0,0,0.769111,-309.834835,-205.037696)">
                    <g transform="matrix(144,0,0,144,457.668083,836.311514)">
                        <rect x="0.086" y="-0.708" width="0.099" height="0.708" style="fill:rgb(104,203,222);fill-rule:nonzero;stroke:rgb(109,204,222);stroke-width:0.01px;stroke-linejoin:round;"/>
                    </g>
                    <g transform="matrix(144,0,0,144,496.692083,836.311514)">
                        <path d="M0.086,-0.708L0.329,-0.708C0.374,-0.708 0.42,-0.701 0.465,-0.688C0.51,-0.675 0.551,-0.654 0.588,-0.625C0.625,-0.596 0.654,-0.56 0.677,-0.515C0.7,-0.47 0.711,-0.417 0.711,-0.354C0.711,-0.293 0.7,-0.241 0.677,-0.197C0.654,-0.152 0.625,-0.116 0.588,-0.087C0.551,-0.058 0.51,-0.036 0.465,-0.022C0.42,-0.007 0.374,-0 0.329,-0L0.086,-0L0.086,-0.708ZM0.185,-0.087L0.309,-0.087C0.352,-0.087 0.391,-0.093 0.427,-0.105C0.464,-0.117 0.495,-0.134 0.521,-0.157C0.548,-0.18 0.568,-0.208 0.583,-0.241C0.598,-0.274 0.605,-0.312 0.605,-0.354C0.605,-0.398 0.598,-0.437 0.583,-0.47C0.568,-0.503 0.548,-0.531 0.521,-0.553C0.495,-0.576 0.464,-0.593 0.427,-0.605C0.391,-0.616 0.352,-0.622 0.309,-0.622L0.185,-0.622L0.185,-0.087Z" style="fill:rgb(104,203,222);fill-rule:nonzero;stroke:rgb(109,204,222);stroke-width:0.01px;stroke-linejoin:round;"/>
                    </g>
                    <g transform="matrix(144,0,0,144,652.356083,836.311514)">
                        <path d="M0.553,-0.621L0.153,-0.088L0.559,-0.088L0.559,-0L0.033,-0L0.033,-0.087L0.432,-0.621L0.041,-0.621L0.041,-0.708L0.553,-0.708L0.553,-0.621Z" style="fill:rgb(104,203,222);fill-rule:nonzero;stroke:rgb(109,204,222);stroke-width:0.01px;stroke-linejoin:round;"/>
                    </g>
                    <g transform="matrix(144,0,0,144,737.604083,836.311514)">
                        <path d="M0.185,-0.088L0.555,-0.088L0.555,-0L0.086,-0L0.086,-0.708L0.54,-0.708L0.54,-0.621L0.185,-0.621L0.185,-0.409L0.519,-0.409L0.519,-0.324L0.185,-0.324L0.185,-0.088Z" style="fill:rgb(104,203,222);fill-rule:nonzero;stroke:rgb(109,204,222);stroke-width:0.01px;stroke-linejoin:round;"/>
                    </g>
                    <g transform="matrix(144,0,0,144,824.148083,836.311514)">
                        <path d="M0.185,-0L0.086,-0L0.086,-0.708L0.313,-0.708C0.347,-0.708 0.379,-0.705 0.41,-0.698C0.441,-0.691 0.468,-0.679 0.49,-0.664C0.513,-0.649 0.532,-0.628 0.545,-0.604C0.558,-0.579 0.565,-0.548 0.565,-0.512C0.565,-0.46 0.549,-0.418 0.517,-0.386C0.485,-0.354 0.444,-0.334 0.393,-0.325L0.591,-0L0.471,-0L0.291,-0.315L0.185,-0.315L0.185,-0ZM0.185,-0.398L0.299,-0.398C0.322,-0.398 0.344,-0.4 0.364,-0.404C0.384,-0.408 0.401,-0.415 0.416,-0.423C0.431,-0.432 0.443,-0.444 0.452,-0.459C0.461,-0.473 0.465,-0.491 0.465,-0.512C0.465,-0.533 0.461,-0.551 0.452,-0.566C0.443,-0.58 0.432,-0.591 0.417,-0.6C0.403,-0.609 0.386,-0.615 0.367,-0.619C0.348,-0.622 0.327,-0.624 0.306,-0.624L0.185,-0.624L0.185,-0.398Z" style="fill:rgb(104,203,222);fill-rule:nonzero;stroke:rgb(109,204,222);stroke-width:0.01px;stroke-linejoin:round;"/>
                    </g>
                    <g transform="matrix(144,0,0,144,912.564083,836.311514)">
                        <path d="M0.8,-0.355C0.8,-0.3 0.791,-0.25 0.771,-0.205C0.752,-0.159 0.726,-0.12 0.693,-0.087C0.66,-0.053 0.62,-0.028 0.574,-0.009C0.528,0.009 0.478,0.018 0.424,0.018C0.37,0.018 0.32,0.009 0.275,-0.009C0.229,-0.028 0.189,-0.053 0.156,-0.087C0.123,-0.12 0.097,-0.159 0.078,-0.205C0.059,-0.25 0.05,-0.3 0.05,-0.355C0.05,-0.41 0.059,-0.461 0.078,-0.507C0.097,-0.552 0.123,-0.591 0.156,-0.624C0.189,-0.656 0.229,-0.681 0.275,-0.699C0.32,-0.717 0.37,-0.726 0.424,-0.726C0.478,-0.726 0.528,-0.717 0.574,-0.699C0.62,-0.681 0.66,-0.656 0.693,-0.624C0.726,-0.591 0.752,-0.552 0.771,-0.507C0.791,-0.461 0.8,-0.41 0.8,-0.355ZM0.693,-0.355C0.693,-0.394 0.687,-0.43 0.674,-0.465C0.661,-0.499 0.643,-0.529 0.62,-0.555C0.597,-0.581 0.568,-0.602 0.535,-0.617C0.502,-0.632 0.465,-0.639 0.424,-0.639C0.383,-0.639 0.346,-0.632 0.314,-0.617C0.281,-0.602 0.253,-0.581 0.23,-0.555C0.207,-0.529 0.189,-0.499 0.176,-0.465C0.163,-0.43 0.157,-0.394 0.157,-0.355C0.157,-0.316 0.163,-0.279 0.176,-0.244C0.189,-0.209 0.207,-0.179 0.23,-0.153C0.253,-0.128 0.281,-0.108 0.314,-0.093C0.347,-0.078 0.383,-0.071 0.424,-0.071C0.465,-0.071 0.502,-0.078 0.535,-0.093C0.568,-0.108 0.597,-0.128 0.62,-0.153C0.643,-0.179 0.661,-0.209 0.674,-0.244C0.687,-0.279 0.693,-0.316 0.693,-0.355Z" style="fill:rgb(104,203,222);fill-rule:nonzero;stroke:rgb(109,204,222);stroke-width:0.01px;stroke-linejoin:round;"/>
                    </g>
                </g>
            </g>
            <g transform="matrix(1,0,0,1,10.620012,0)">
                <g transform="matrix(0.765723,0,0,0.769111,-196.11374,-218.684227)">
                    <g transform="matrix(144,0,0,144,457.668083,836.311514)">
                        <rect x="0.044" y="-0.284" width="0.232" height="0.08" style="fill:rgb(104,203,222);fill-rule:nonzero;stroke:rgb(109,204,222);stroke-width:0.01px;stroke-linejoin:round;"/>
                    </g>
                </g>
            </g>
        </g>
    </g>
</svg>
