<?xml version="1.0" encoding="UTF-8" standalone="no"?><!DOCTYPE svg PUBLIC "-//W3C//DTD SVG 1.1//EN" "http://www.w3.org/Graphics/SVG/1.1/DTD/svg11.dtd"><svg width="100%" height="100%" viewBox="0 0 1605 1605" version="1.1" xmlns="http://www.w3.org/2000/svg" xmlns:xlink="http://www.w3.org/1999/xlink" xml:space="preserve" xmlns:serif="http://www.serif.com/" style="fill-rule:evenodd;clip-rule:evenodd;stroke-linecap:round;stroke-linejoin:round;stroke-miterlimit:1.5;"><rect x="2.344" y="2.344" width="1600" height="1600" style="fill:#101c2b;stroke:#23383c;stroke-width:4.69px;"/><g transform="matrix(0.995594,0,0,1,-0.579054,0)"><g transform="matrix(51.748011,0,0,51.748011,1470.493173,1461.113726)"></g><text x="144.012px" y="1461.114px" style="font-family:'AvenirNext-UltraLight', 'Avenir Next', sans-serif;font-weight:275;font-size:51.748px;fill:none;stroke:#fff;stroke-width:2.51px;stroke-linecap:butt;stroke-miterlimit:2;">O<tspan x="197.933px 236.33px 273.899px 295.633px 336.825px 374.394px 399.595px 429.868px 469.972px 508.369px 528.027px 549.761px 603.682px 642.079px 679.648px 701.383px 739.78px 779.884px 821.076px 858.645px 878.302px 900.036px 938.324px 975.893px 1000.159px 1040.264px 1061.998px 1103.189px 1137.962px 1162.49px 1197.783px 1219.517px 1256.774px 1288.961px 1330.153px 1370.257px 1400.53px 1438.099px " y="1461.114px 1461.114px 1461.114px 1461.114px 1461.114px 1461.114px 1461.114px 1461.114px 1461.114px 1461.114px 1461.114px 1461.114px 1461.114px 1461.114px 1461.114px 1461.114px 1461.114px 1461.114px 1461.114px 1461.114px 1461.114px 1461.114px 1461.114px 1461.114px 1461.114px 1461.114px 1461.114px 1461.114px 1461.114px 1461.114px 1461.114px 1461.114px 1461.114px 1461.114px 1461.114px 1461.114px 1461.114px 1461.114px ">ne person. One node. Zero data exposed</tspan></text></g><g><g><g><path d="M802.283,342.784c-0.997,0.019 -2.01,0.011 -3.041,-0.027" style="fill:none;stroke:#6dccde;stroke-width:12.5px;stroke-linecap:butt;stroke-linejoin:miter;stroke-miterlimit:2;"/><path d="M803.401,342.794c-0.375,0.001 -0.748,-0.003 -1.118,-0.01" style="fill:none;stroke:#6dccde;stroke-width:12.5px;stroke-linecap:butt;stroke-linejoin:miter;stroke-miterlimit:2;"/><path d="M803.823,342.791c-0.141,0.001 -0.281,0.002 -0.422,0.002" style="fill:none;stroke:#6dccde;stroke-width:12.5px;stroke-linecap:butt;stroke-linejoin:miter;stroke-miterlimit:2;"/><path d="M804.768,342.774c-0.317,0.008 -0.632,0.014 -0.945,0.017" style="fill:none;stroke:#6dccde;stroke-width:12.5px;stroke-linecap:butt;stroke-linejoin:miter;stroke-miterlimit:2;"/><path d="M805.324,342.756c-0.186,0.007 -0.371,0.013 -0.556,0.018" style="fill:none;stroke:#6dccde;stroke-width:12.5px;stroke-linecap:butt;stroke-linejoin:miter;stroke-miterlimit:2;"/><path d="M803.823,342.732c-0.14,0.007 -0.281,0.013 -0.422,0.019c-0.37,0.015 -0.743,0.026 -1.118,0.033c-27.641,-0.531 -42.355,-22.356 -48.474,-29.266c-5.206,-5.873 -11.932,-28.343 -13.014,-35.974c-1.082,-7.633 -4.355,-6.541 -9.767,-9.813c-5.438,-3.269 -11.081,-27.51 -10.875,-37.066c0.103,-4.494 9.252,-9.88 9.252,-9.88c0,0 -8.865,-35.161 13.04,-66.6c18.768,-26.948 57.255,-26.865 59.761,-26.83l0.063,0.001l0.314,-0.003c4.132,-0.02 41.206,0.545 59.539,26.832c21.905,31.439 13.014,66.6 13.014,66.6c0,0 9.149,5.387 9.251,9.88c0.232,9.556 -5.412,33.797 -10.849,37.066c-5.412,3.272 -8.685,2.179 -9.767,9.813c-1.082,7.631 -7.808,30.101 -13.014,35.974c-5.933,6.701 -19.947,27.425 -45.993,29.16c-0.312,0.021 -0.626,0.039 -0.941,0.054Z" style="fill:none;stroke:#6dccde;stroke-width:6.25px;stroke-linecap:butt;stroke-linejoin:miter;stroke-miterlimit:2;"/><path d="M753.81,313.518c0,0 -1.392,23.006 -4.046,29.275c-2.68,6.272 -5.515,11.596 -10.643,14.946c-5.927,3.872 -31.929,20.053 -43.165,24.688c-8.015,3.303 -58.137,17.79 -65.121,22.685c-9.355,6.582 -28.012,25.098 -37.857,66.057c-4.149,17.249 0.077,33.53 0,46.038c-0.052,10.758 -13.246,82.281 -14.612,113.427c-0.644,14.726 -17.369,42.939 -20.59,56.715c-6.03,25.664 -9.973,139.653 -10.643,161.469c-0.928,31.025 -9.38,61.263 -6.623,82.069c2.319,17.65 9.149,33.541 14.612,40.7c4.149,5.451 28.553,26.021 35.872,26.689c7.293,0.668 11.287,0.668 10.617,-8.006c-0.67,-8.674 -23.245,-28.025 -23.245,-34.03c0,-6.005 1.16,-29.371 2.654,-30.691c2.268,-1.99 4.665,-2.669 5.979,0.668c1.34,3.334 5.515,22.141 7.319,26.021c2.294,4.998 3.969,9.342 11.287,8.006c7.293,-1.336 3.995,-18.016 3.995,-24.688c0,-6.67 -5.335,-38.032 -6.649,-42.701c-1.34,-4.67 -13.298,-16.015 -13.967,-26.689c-0.644,-10.675 26.517,-86.485 29.816,-93.155c3.324,-6.673 16.029,-38.956 18.013,-49.63c2.01,-10.677 3.324,-37.594 3.969,-43.6c0.67,-6.005 24.301,-108.719 25.925,-105.194c4.665,10.009 7.009,18.919 7.834,24.233c1.727,11.009 9.329,54.657 10.102,71.182c0.773,16.47 -5.979,95.412 -6.623,102.085c-0.67,6.673 -17.472,62.482 -23.271,121.436c-1.598,16.393 -5.54,131.003 -1.959,163.659" style="fill:none;stroke:#6dccde;stroke-width:6.25px;stroke-linecap:butt;stroke-linejoin:miter;stroke-miterlimit:2;"/><path d="M835.604,1070.708c-1.701,-3.399 -4.072,-9.347 -5.901,-17.72c-2.165,-9.859 -7.679,-27.282 -9.973,-40.033c-1.52,-8.537 -3.762,-29.87 -7.319,-50.71c-3.092,-18.191 -3.531,-32.027 -10.076,-30.691c-6.52,-1.336 -6.984,12.5 -10.076,30.691c-3.531,20.839 -5.773,42.173 -7.293,50.71c-2.294,12.751 -7.808,30.173 -9.973,40.033c-1.727,7.866 -3.917,13.594 -5.592,17.076" style="fill:none;stroke:#6dccde;stroke-width:8.33px;stroke-linecap:butt;stroke-linejoin:miter;stroke-miterlimit:2;"/><path d="M850.886,313.518c0,0 1.392,23.006 4.046,29.275c2.654,6.272 5.489,11.596 10.643,14.946c5.927,3.872 31.929,20.053 43.165,24.688c8.015,3.303 58.137,17.79 65.096,22.685c9.38,6.582 28.012,25.098 37.882,66.057c4.123,17.249 -0.077,33.53 0,46.038c0.052,10.758 13.246,82.281 14.612,113.427c0.644,14.726 17.343,42.939 20.59,56.715c6.004,25.664 9.947,139.653 10.617,161.469c0.953,31.025 9.38,61.263 6.649,82.069c-2.319,17.65 -9.148,33.541 -14.612,40.7c-4.175,5.451 -28.579,26.021 -35.872,26.689c-7.319,0.668 -11.287,0.668 -10.643,-8.006c0.67,-8.674 23.271,-28.025 23.271,-34.03c0,-6.005 -1.16,-29.371 -2.654,-30.691c-2.268,-1.99 -4.664,-2.669 -5.979,0.668c-1.34,3.334 -5.541,22.141 -7.319,26.021c-2.294,4.998 -3.994,9.342 -11.287,8.006c-7.319,-1.336 -3.994,-18.016 -3.994,-24.688c0,-6.67 5.309,-38.032 6.649,-42.701c1.314,-4.67 13.272,-16.015 13.942,-26.689c0.67,-10.675 -26.492,-86.485 -29.816,-93.155c-3.324,-6.673 -16.003,-38.956 -18.013,-49.63c-1.984,-10.677 -3.298,-37.594 -3.968,-43.6c-0.67,-6.005 -24.276,-108.719 -25.925,-105.194c-4.638,10.009 -6.984,18.919 -7.834,24.233c-1.726,11.009 -9.329,54.657 -10.102,71.182c-0.773,16.47 5.979,95.412 6.649,102.085c0.67,6.673 17.446,62.482 23.245,121.436c1.649,16.633 5.669,134.389 1.804,165.043" style="fill:none;stroke:#6dccde;stroke-width:8.33px;stroke-linecap:butt;stroke-linejoin:miter;stroke-miterlimit:2;"/><path d="M767.906,184.244c0,4.167 -3.376,7.545 -7.525,7.545c-4.149,0 -7.499,-3.378 -7.499,-7.545c0,-4.167 3.35,-7.545 7.499,-7.545c4.149,0 7.525,3.378 7.525,7.545Z" style="fill:#6dccde;fill-rule:nonzero;stroke:#6dccde;stroke-width:3.13px;stroke-linecap:butt;stroke-miterlimit:2;"/><path d="M849.443,182.005c0,4.17 -3.376,7.548 -7.525,7.548c-4.149,0 -7.499,-3.378 -7.499,-7.548c0,-4.167 3.35,-7.545 7.499,-7.545c4.149,0 7.525,3.378 7.525,7.545Z" style="fill:#6dccde;fill-rule:nonzero;stroke:#6dccde;stroke-width:3.13px;stroke-linecap:butt;stroke-miterlimit:2;"/><path d="M849.443,235.073c0,4.167 -3.376,7.545 -7.525,7.545c-4.149,0 -7.499,-3.378 -7.499,-7.545c0,-4.167 3.35,-7.545 7.499,-7.545c4.149,0 7.525,3.378 7.525,7.545Z" style="fill:#6dccde;fill-rule:nonzero;stroke:#6dccde;stroke-width:3.13px;stroke-linecap:butt;stroke-miterlimit:2;"/><path d="M802.335,235.073c0,4.167 -3.35,7.545 -7.499,7.545c-4.149,0 -7.525,-3.378 -7.525,-7.545c0,-4.167 3.376,-7.545 7.525,-7.545c4.149,0 7.499,3.378 7.499,7.545Z" style="fill:#6dccde;fill-rule:nonzero;stroke:#6dccde;stroke-width:3.13px;stroke-linecap:butt;stroke-miterlimit:2;"/><path d="M845.165,288.141c0,4.167 -3.376,7.545 -7.525,7.545c-4.149,0 -7.499,-3.378 -7.499,-7.545c0,-4.17 3.35,-7.548 7.499,-7.548c4.149,0 7.525,3.378 7.525,7.548Z" style="fill:#6dccde;fill-rule:nonzero;stroke:#6dccde;stroke-width:3.13px;stroke-linecap:butt;stroke-miterlimit:2;"/><path d="M781.513,299.242c0,4.167 -3.35,7.545 -7.499,7.545c-4.149,0 -7.525,-3.378 -7.525,-7.545c0,-4.167 3.376,-7.545 7.525,-7.545c4.149,0 7.499,3.378 7.499,7.545Z" style="fill:#6dccde;fill-rule:nonzero;stroke:#6dccde;stroke-width:3.13px;stroke-linecap:butt;stroke-miterlimit:2;"/><path d="M811.844,342.793c0,4.17 -3.35,7.548 -7.499,7.548c-4.149,0 -7.525,-3.378 -7.525,-7.548c0,-4.167 3.376,-7.545 7.525,-7.545c4.149,0 7.499,3.378 7.499,7.545Z" style="fill:#6dccde;fill-rule:nonzero;stroke:#6dccde;stroke-width:3.13px;stroke-linecap:butt;stroke-miterlimit:2;"/><path d="M854.391,386.672c0,4.167 -3.376,7.548 -7.525,7.548c-4.149,0 -7.499,-3.381 -7.499,-7.548c0,-4.167 3.35,-7.545 7.499,-7.545c4.149,0 7.525,3.378 7.525,7.545Z" style="fill:#6dccde;fill-rule:nonzero;stroke:#6dccde;stroke-width:3.13px;stroke-linecap:butt;stroke-miterlimit:2;"/><path d="M804.345,419.459c0,4.167 -3.376,7.545 -7.525,7.545c-4.149,0 -7.499,-3.378 -7.499,-7.545c0,-4.167 3.35,-7.545 7.499,-7.545c4.149,0 7.525,3.378 7.525,7.545Z" style="fill:#6dccde;fill-rule:nonzero;stroke:#6dccde;stroke-width:3.13px;stroke-linecap:butt;stroke-miterlimit:2;"/><path d="M717.886,468.142c0,4.167 -3.376,7.545 -7.525,7.545c-4.149,0 -7.499,-3.378 -7.499,-7.545c0,-4.167 3.35,-7.545 7.499,-7.545c4.149,0 7.525,3.378 7.525,7.545Z" style="fill:#6dccde;fill-rule:nonzero;stroke:#6dccde;stroke-width:3.13px;stroke-linecap:butt;stroke-miterlimit:2;"/><path d="M649.311,473.772c0,4.167 -3.376,7.545 -7.525,7.545c-4.149,0 -7.499,-3.378 -7.499,-7.545c0,-4.167 3.35,-7.545 7.499,-7.545c4.149,0 7.525,3.378 7.525,7.545Z" style="fill:#6dccde;fill-rule:nonzero;stroke:#6dccde;stroke-width:3.13px;stroke-linecap:butt;stroke-miterlimit:2;"/><path d="M786.46,522.124c0,4.167 -3.35,7.545 -7.499,7.545c-4.149,0 -7.525,-3.378 -7.525,-7.545c0,-4.167 3.376,-7.545 7.525,-7.545c4.149,0 7.499,3.378 7.499,7.545Z" style="fill:#6dccde;fill-rule:nonzero;stroke:#6dccde;stroke-width:3.13px;stroke-linecap:butt;stroke-miterlimit:2;"/><path d="M905.158,454.895c0,4.167 -3.35,7.545 -7.499,7.545c-4.149,0 -7.525,-3.378 -7.525,-7.545c0,-4.167 3.376,-7.545 7.525,-7.545c4.149,0 7.499,3.378 7.499,7.545Z" style="fill:#6dccde;fill-rule:nonzero;stroke:#6dccde;stroke-width:3.13px;stroke-linecap:butt;stroke-miterlimit:2;"/><path d="M970.125,475.688c0,4.167 -3.376,7.545 -7.525,7.545c-4.149,0 -7.499,-3.378 -7.499,-7.545c0,-4.167 3.35,-7.545 7.499,-7.545c4.149,0 7.525,3.378 7.525,7.545Z" style="fill:#6dccde;fill-rule:nonzero;stroke:#6dccde;stroke-width:3.13px;stroke-linecap:butt;stroke-miterlimit:2;"/><path d="M831.301,632.407c0,4.167 -3.35,7.545 -7.499,7.545c-4.149,0 -7.525,-3.378 -7.525,-7.545c0,-4.167 3.376,-7.548 7.525,-7.548c4.149,0 7.499,3.38 7.499,7.548Z" style="fill:#6dccde;fill-rule:nonzero;stroke:#6dccde;stroke-width:3.13px;stroke-linecap:butt;stroke-miterlimit:2;"/><path d="M774.271,728.779c0,4.167 -3.376,7.548 -7.525,7.548c-4.149,0 -7.499,-3.38 -7.499,-7.548c0,-4.167 3.35,-7.548 7.499,-7.548c4.149,0 7.525,3.38 7.525,7.548Z" style="fill:#6dccde;fill-rule:nonzero;stroke:#6dccde;stroke-width:3.13px;stroke-linecap:butt;stroke-miterlimit:2;"/><path d="M886.707,732.421c0,4.17 -3.376,7.545 -7.525,7.545c-4.149,0 -7.499,-3.375 -7.499,-7.545c0,-4.167 3.35,-7.545 7.499,-7.545c4.149,0 7.525,3.378 7.525,7.545Z" style="fill:#6dccde;fill-rule:nonzero;stroke:#6dccde;stroke-width:3.13px;stroke-linecap:butt;stroke-miterlimit:2;"/><path d="M590.297,730.767c0,4.165 -3.376,7.545 -7.525,7.545c-4.149,0 -7.525,-3.38 -7.525,-7.545c0,-4.17 3.376,-7.548 7.525,-7.548c4.149,0 7.525,3.378 7.525,7.548Z" style="fill:#6dccde;fill-rule:nonzero;stroke:#6dccde;stroke-width:3.13px;stroke-linecap:butt;stroke-miterlimit:2;"/><path d="M817.359,817.202c0,4.167 -3.35,7.545 -7.499,7.545c-4.149,0 -7.525,-3.378 -7.525,-7.545c0,-4.167 3.376,-7.545 7.525,-7.545c4.149,0 7.499,3.378 7.499,7.545Z" style="fill:#6dccde;fill-rule:nonzero;stroke:#6dccde;stroke-width:3.13px;stroke-linecap:butt;stroke-miterlimit:2;"/><path d="M733.374,867.54c0,4.17 -3.35,7.548 -7.499,7.548c-4.149,0 -7.525,-3.378 -7.525,-7.548c0,-4.167 3.376,-7.545 7.525,-7.545c4.149,0 7.499,3.378 7.499,7.545Z" style="fill:#6dccde;fill-rule:nonzero;stroke:#6dccde;stroke-width:3.13px;stroke-linecap:butt;stroke-miterlimit:2;"/><path d="M898.561,846.345c0,4.167 -3.35,7.545 -7.499,7.545c-4.149,0 -7.525,-3.378 -7.525,-7.545c0,-4.167 3.376,-7.545 7.525,-7.545c4.149,0 7.499,3.378 7.499,7.545Z" style="fill:#6dccde;fill-rule:nonzero;stroke:#6dccde;stroke-width:3.13px;stroke-linecap:butt;stroke-miterlimit:2;"/><path d="M585.994,900.658c0,4.167 -3.35,7.545 -7.499,7.545c-4.149,0 -7.525,-3.378 -7.525,-7.545c0,-4.167 3.376,-7.545 7.525,-7.545c4.149,0 7.499,3.378 7.499,7.545Z" style="fill:#6dccde;fill-rule:nonzero;stroke:#6dccde;stroke-width:3.13px;stroke-linecap:butt;stroke-miterlimit:2;"/><path d="M1033.752,899.996c0,4.167 -3.35,7.545 -7.499,7.545c-4.149,0 -7.525,-3.378 -7.525,-7.545c0,-4.167 3.376,-7.545 7.525,-7.545c4.149,0 7.499,3.378 7.499,7.545Z" style="fill:#6dccde;fill-rule:nonzero;stroke:#6dccde;stroke-width:3.13px;stroke-linecap:butt;stroke-miterlimit:2;"/><path d="M1029.474,729.77c0,4.167 -3.376,7.548 -7.525,7.548c-4.149,0 -7.499,-3.38 -7.499,-7.548c0,-4.167 3.35,-7.545 7.499,-7.545c4.149,0 7.525,3.378 7.525,7.545Z" style="fill:#6dccde;fill-rule:nonzero;stroke:#6dccde;stroke-width:3.13px;stroke-linecap:butt;stroke-miterlimit:2;"/><path d="M849.443,139.575l-7.525,42.43l-81.537,2.239l0,-46.227" style="fill:none;stroke:#6dccde;stroke-width:3.13px;stroke-linecap:butt;stroke-linejoin:miter;stroke-miterlimit:2;"/><path d="M734.688,168.092l21.905,16.152l36.465,45.893l46.309,-43.838l2.551,41.228l-4.278,53.065l-37.857,-39.849" style="fill:none;stroke:#6dccde;stroke-width:3.13px;stroke-linecap:butt;stroke-linejoin:miter;stroke-miterlimit:2;"/><path d="M790.197,237.925l-50.999,34.721" style="fill:none;stroke:#6dccde;stroke-width:6.25px;stroke-linecap:butt;stroke-linejoin:miter;stroke-miterlimit:2;"/><path d="M794.836,242.618l-18.993,51.836l5.67,4.789l48.628,-11.102l4.278,3.557l-27.291,47.172l-9.561,0.688l-23.554,-32.769l-4.484,-4.258l-16.699,10.398" style="fill:none;stroke:#6dccde;stroke-width:3.13px;stroke-linecap:butt;stroke-linejoin:miter;stroke-miterlimit:2;"/><path d="M767.906,296.76l-27.11,-19.217" style="fill:none;stroke:#6dccde;stroke-width:6.25px;stroke-linecap:butt;stroke-linejoin:miter;stroke-miterlimit:2;"/><path d="M844.804,285.86l18.967,-8.317l-18.606,-34.926l1.701,-7.545l28.27,-14.288l-70.224,-93.432l-75.507,93.432" style="fill:none;stroke:#6dccde;stroke-width:3.13px;stroke-linecap:butt;stroke-linejoin:miter;stroke-miterlimit:2;"/><path d="M797.413,345.702l-54.684,8.997l48.654,59.562l99.319,37.776l-43.835,-57.818l4.02,-65.446" style="fill:none;stroke:#6dccde;stroke-width:3.13px;stroke-linecap:butt;stroke-linejoin:miter;stroke-miterlimit:2;"/><path d="M808.236,349.251l33.682,33.456l75.868,2.837l-20.127,61.807l40.305,127.237" style="fill:none;stroke:#6dccde;stroke-width:6.25px;stroke-linecap:butt;stroke-linejoin:miter;stroke-miterlimit:2;"/><path d="M979.479,409.683l-197.606,112.441l14.947,-95.12l7.525,-76.664" style="fill:none;stroke:#6dccde;stroke-width:6.25px;stroke-linecap:butt;stroke-linejoin:miter;stroke-miterlimit:2;"/><path d="M791.64,417.893l-95.685,-35.467l14.406,78.171l3.453,4.307l128.104,-74.5" style="fill:none;stroke:#6dccde;stroke-width:6.25px;stroke-linecap:butt;stroke-linejoin:miter;stroke-miterlimit:2;"/><path d="M774.4,519.127l-59.71,-47.588l-88.804,-62.472l39.531,160.283l1.289,5.236l41.361,-100.814l-5.206,-5.63l-53.551,5.63l-13.272,4.853l-41.954,33.58l68.343,53.645l5.437,11.317l104.447,-51.512l2.886,2.997l-90.479,145.345l133.902,-39.507l117.486,-65.772l-154.235,-46.594l0,5.079l41.928,97.656l6.108,11.927l88.366,39.238l-34.816,50.182l-70.301,86.523l-10.669,115.654l-5.102,6.808l-68.626,-63.911l-51.412,-95.754l81.898,-46.747l112.436,3.642l4.664,-3.642l-50.252,-92.557l-4.896,0.287l-52.546,87.101l-6.314,1.266l-77.672,-48.292" style="fill:none;stroke:#6dccde;stroke-width:3.13px;stroke-linecap:butt;stroke-linejoin:miter;stroke-miterlimit:2;"/><path d="M664.181,574.586l-85.815,56.047l61.797,44.599l-54.942,53.547l-7.705,-92.381" style="fill:none;stroke:#6dccde;stroke-width:6.25px;stroke-linecap:butt;stroke-linejoin:miter;stroke-miterlimit:2;"/><path d="M580.582,736.327l-31.285,56.876l55.535,17.746l-20.59,-74.622" style="fill:none;stroke:#6dccde;stroke-width:3.13px;stroke-linecap:butt;stroke-linejoin:miter;stroke-miterlimit:2;"/><path d="M604.832,810.949l-58.627,52.628l28.244,34.064" style="fill:none;stroke:#6dccde;stroke-width:6.25px;stroke-linecap:butt;stroke-linejoin:miter;stroke-miterlimit:2;"/><path d="M718.35,867.54l-62.261,30.101l83.625,48.028l-13.839,-70.581l3.788,-7.548l76.254,-46.253l1.959,-10.338l-38.475,-76.85" style="fill:none;stroke:#6dccde;stroke-width:3.13px;stroke-linecap:butt;stroke-linejoin:miter;stroke-miterlimit:2;"/><path d="M677.349,775.526l127.357,39.357l82.001,31.462l8.968,2.775l54.736,50.876" style="fill:none;stroke:#6dccde;stroke-width:6.25px;stroke-linecap:butt;stroke-linejoin:miter;stroke-miterlimit:2;"/><path d="M894.927,842.716l33.604,-62.164l-44.995,-44.226l-4.355,3.639l11.88,98.834l-3.969,102.926l-0.489,-0.003l61.539,-41.728" style="fill:none;stroke:#6dccde;stroke-width:6.25px;stroke-linecap:butt;stroke-linejoin:miter;stroke-miterlimit:2;"/><path d="M807.875,935.191l78.651,-82.843" style="fill:none;stroke:#6dccde;stroke-width:3.13px;stroke-linecap:butt;stroke-linejoin:miter;stroke-miterlimit:2;"/><path d="M812.829,942.821l72.765,-2.618" style="fill:none;stroke:#6dccde;stroke-width:6.25px;stroke-linecap:butt;stroke-linejoin:miter;stroke-miterlimit:2;"/><path d="M795.145,938.866l-55.432,6.802l-0.928,86.373" style="fill:none;stroke:#6dccde;stroke-width:3.13px;stroke-linecap:butt;stroke-linejoin:miter;stroke-miterlimit:2;"/><path d="M788.637,972.665l-49.853,-25.274l-88.841,27.557" style="fill:none;stroke:#6dccde;stroke-width:3.13px;stroke-linecap:butt;stroke-linejoin:miter;stroke-miterlimit:2;"/><path d="M952.308,973.663l-65.926,-33.511l-36.75,95.92" style="fill:none;stroke:#6dccde;stroke-width:3.13px;stroke-linecap:butt;stroke-linejoin:miter;stroke-miterlimit:2;"/><path d="M905.158,454.895l57.442,20.793l49.118,41.518l-75.61,51.512l90.222,61.915l-60.586,41.495l56.205,57.642l-18.374,79.887l54.607,50.337l-31.929,40.002" style="fill:none;stroke:#6dccde;stroke-width:3.13px;stroke-linecap:butt;stroke-linejoin:miter;stroke-miterlimit:2;"/><path d="M1003.574,809.657l51.669,-19.768l-33.295,-60.119l4.381,-99.137" style="fill:none;stroke:#6dccde;stroke-width:6.25px;stroke-linecap:butt;stroke-linejoin:miter;stroke-miterlimit:2;"/><path d="M897.865,1000.546l52.803,-28.273" style="fill:none;fill-rule:nonzero;stroke:#6dccde;stroke-width:3.13px;stroke-linecap:butt;stroke-miterlimit:2;"/><path d="M897.865,1000.546l52.803,33.849" style="fill:none;fill-rule:nonzero;stroke:#6dccde;stroke-width:3.13px;stroke-linecap:butt;stroke-miterlimit:2;"/><path d="M738.09,1029.019l52.803,-56.746" style="fill:none;fill-rule:nonzero;stroke:#6dccde;stroke-width:3.13px;stroke-linecap:butt;stroke-miterlimit:2;"/><path d="M888.313,943.294l10.058,57.757" style="fill:none;stroke:#6dccde;stroke-width:6.25px;stroke-linecap:butt;stroke-linejoin:miter;stroke-miterlimit:2;"/><path d="M738.846,948.471l-87.868,99.172" style="fill:none;stroke:#6dccde;stroke-width:6.25px;stroke-linecap:butt;stroke-linejoin:miter;stroke-miterlimit:2;"/><path d="M746.182,947.421c0,4.167 -3.376,7.545 -7.525,7.545c-4.149,0 -7.499,-3.378 -7.499,-7.545c0,-4.167 3.35,-7.545 7.499,-7.545c4.149,0 7.525,3.378 7.525,7.545Z" style="fill:#6dccde;fill-rule:nonzero;stroke:#6dccde;stroke-width:3.13px;stroke-linecap:butt;stroke-miterlimit:2;"/><path d="M905.957,1001.778c0,4.167 -3.376,7.545 -7.525,7.545c-4.149,0 -7.499,-3.378 -7.499,-7.545c0,-4.167 3.35,-7.545 7.499,-7.545c4.149,0 7.525,3.378 7.525,7.545Z" style="fill:#6dccde;fill-rule:nonzero;stroke:#6dccde;stroke-width:3.13px;stroke-linecap:butt;stroke-miterlimit:2;"/><path d="M746.182,1030.251c0,4.167 -3.376,7.545 -7.525,7.545c-4.149,0 -7.499,-3.378 -7.499,-7.545c0,-4.167 3.35,-7.545 7.499,-7.545c4.149,0 7.525,3.378 7.525,7.545Z" style="fill:#6dccde;fill-rule:nonzero;stroke:#6dccde;stroke-width:3.13px;stroke-linecap:butt;stroke-miterlimit:2;"/><path d="M843.593,1041.117c-2.242,-3.37 -1.34,-7.926 2.01,-10.173c3.376,-2.247 7.886,-1.336 10.128,2.034c2.242,3.37 1.34,7.923 -2.01,10.17c-3.35,2.249 -7.886,1.338 -10.128,-2.032Z" style="fill:#6dccde;fill-rule:nonzero;stroke:#6dccde;stroke-width:3.13px;stroke-linecap:butt;stroke-miterlimit:2;"/><path d="M880.419,943.782c-2.242,-3.37 -1.34,-7.923 2.01,-10.17c3.376,-2.249 7.886,-1.338 10.128,2.032c2.242,3.37 1.34,7.923 -2.01,10.173c-3.35,2.247 -7.886,1.338 -10.128,-2.035Z" style="fill:#6dccde;fill-rule:nonzero;stroke:#6dccde;stroke-width:3.13px;stroke-linecap:butt;stroke-miterlimit:2;"/><path d="M795.637,239.159l43.978,-3.733" style="fill:none;stroke:#6dccde;stroke-width:4.69px;"/><path d="M795.637,236.019l-65.431,-9.879" style="fill:none;stroke:#6dccde;stroke-width:4.69px;"/></g></g></g><g><g><g transform="matrix(2.392883,0,0,2.403473,-989.705629,-640.742799)"><text x="457.668px" y="836.312px" style="font-family:'AvenirNext-Medium', 'Avenir Next', sans-serif;font-weight:500;font-size:144px;fill:none;">ID-</text><text x="652.356px" y="836.312px" style="font-family:'AvenirNext-Medium', 'Avenir Next', sans-serif;font-weight:500;font-size:144px;fill:none;stroke:#6dccde;stroke-width:2.61px;stroke-linecap:butt;stroke-miterlimit:2;">Z</text><g transform="matrix(144,0,0,144,1034.820083,836.311514)"></g><text x="737.604px" y="836.312px" style="font-family:'AvenirNext-Medium', 'Avenir Next', sans-serif;font-weight:500;font-size:144px;fill:none;">ERO</text></g><g><path d="M590.073,1328.125l34.375,9.375" style="fill:none;stroke:#6dccde;stroke-width:4.17px;"/><path d="M583.823,1356.25l40.625,-18.75l-9.375,28.125" style="fill:#6dccde;fill-opacity:0.07;stroke:#6dccde;stroke-width:4.17px;"/><path d="M627.573,1340.625l25,31.25l62.5,-31.25" style="fill:#6dccde;fill-opacity:0.27;stroke:#6dccde;stroke-width:4.17px;"/><path d="M583.823,1125l62.5,31.25l-9.375,-31.25" style="fill:#6dccde;fill-opacity:0.18;stroke:#6dccde;stroke-width:4.17px;"/><path d="M665.073,1228.125l6.25,43.75l25,-81.25" style="fill:#6dccde;fill-opacity:0.12;stroke:#6dccde;stroke-width:4.17px;"/><path d="M674.448,1268.75l-56.25,25l6.25,40.625" style="fill:#6dccde;fill-opacity:0.04;stroke:#6dccde;stroke-width:4.17px;"/><path d="M646.323,1156.25l46.875,-31.25l68.75,15.625l-40.625,12.5" style="fill:#6dccde;fill-opacity:0.1;stroke:#6dccde;stroke-width:4.17px;"/><path d="M696.323,1187.5l43.75,-6.25l-43.75,-56.25" style="fill:none;stroke:#6dccde;stroke-width:4.17px;"/><path d="M618.198,1290.625l100,-137.5l43.75,-12.5l0,9.375l-137.5,181.25" style="fill:#6dccde;fill-opacity:0.09;"/><path d="M758.823,1365.625l-40.625,-28.125l-6.25,31.25" style="fill:#6dccde;fill-opacity:0;stroke:#6dccde;stroke-width:4.17px;"/><path d="M665.073,1228.125l6.25,43.75l25,-81.25" style="fill:#6dccde;fill-opacity:0.22;stroke:#6dccde;stroke-width:4.17px;"/><path d="M583.823,1125l62.5,31.25l-9.375,-31.25" style="fill:#6dccde;fill-opacity:0.07;stroke:#6dccde;stroke-width:4.17px;"/></g><g><path d="M770.63,1139.626c0,4.167 -3.376,7.545 -7.525,7.545c-4.149,0 -7.499,-3.378 -7.499,-7.545c0,-4.167 3.35,-7.545 7.499,-7.545c4.149,0 7.525,3.378 7.525,7.545Z" style="fill:#6eccde;fill-rule:nonzero;stroke:#6dccde;stroke-width:3.13px;stroke-linecap:butt;stroke-miterlimit:2;"/><path d="M592.505,1124.001c0,4.167 -3.376,7.545 -7.525,7.545c-4.149,0 -7.499,-3.378 -7.499,-7.545c0,-4.167 3.35,-7.545 7.499,-7.545c4.149,0 7.525,3.378 7.525,7.545Z" style="fill:#6eccde;fill-rule:nonzero;stroke:#6dccde;stroke-width:3.13px;stroke-linecap:butt;stroke-miterlimit:2;"/><path d="M661.255,1367.751c0,4.167 -3.376,7.545 -7.525,7.545c-4.149,0 -7.499,-3.378 -7.499,-7.545c0,-4.167 3.35,-7.545 7.499,-7.545c4.149,0 7.525,3.378 7.525,7.545Z" style="fill:#6eccde;fill-rule:nonzero;stroke:#6dccde;stroke-width:3.13px;stroke-linecap:butt;stroke-miterlimit:2;"/><path d="M680.005,1270.876c0,4.167 -3.376,7.545 -7.525,7.545c-4.149,0 -7.499,-3.378 -7.499,-7.545c0,-4.167 3.35,-7.545 7.499,-7.545c4.149,0 7.525,3.378 7.525,7.545Z" style="fill:#6eccde;fill-rule:nonzero;stroke:#6dccde;stroke-width:3.13px;stroke-linecap:butt;stroke-miterlimit:2;"/><path d="M704.45,1187.31c1.008,4.044 -1.451,8.138 -5.477,9.141c-4.026,1.003 -8.094,-1.464 -9.101,-5.508c-1.008,-4.044 1.426,-8.132 5.452,-9.135c4.026,-1.003 8.119,1.458 9.126,5.502Z" style="fill:#6eccde;fill-rule:nonzero;stroke:#6dccde;stroke-width:3.12px;stroke-linecap:butt;stroke-miterlimit:2;"/><path d="M651.988,1153.934c1.008,4.044 -1.451,8.138 -5.477,9.141c-4.026,1.003 -8.094,-1.464 -9.101,-5.508c-1.008,-4.044 1.426,-8.132 5.452,-9.135c4.026,-1.003 8.119,1.458 9.126,5.502Z" style="fill:#6eccde;fill-rule:nonzero;stroke:#6dccde;stroke-width:3.12px;stroke-linecap:butt;stroke-miterlimit:2;"/><path d="M701.988,1122.684c1.008,4.044 -1.451,8.138 -5.477,9.141c-4.026,1.003 -8.094,-1.464 -9.101,-5.508c-1.008,-4.044 1.426,-8.132 5.452,-9.135c4.026,-1.003 8.119,1.458 9.126,5.502Z" style="fill:#6eccde;fill-rule:nonzero;stroke:#6dccde;stroke-width:3.12px;stroke-linecap:butt;stroke-miterlimit:2;"/><path d="M771.137,1370.484c-1.695,3.807 -6.153,5.52 -9.943,3.832c-3.79,-1.688 -5.477,-6.136 -3.782,-9.943c1.695,-3.807 6.13,-5.53 9.92,-3.843c3.79,1.688 5.501,6.147 3.805,9.954Z" style="fill:#6eccde;fill-rule:nonzero;stroke:#6dccde;stroke-width:3.13px;stroke-linecap:butt;stroke-miterlimit:2;"/><path d="M725.039,1340.045c-0.724,4.104 -4.636,6.844 -8.722,6.123c-4.086,-0.721 -6.798,-4.63 -6.074,-8.734c0.724,-4.104 4.61,-6.848 8.696,-6.127c4.086,0.721 6.824,4.634 6.1,8.738Z" style="fill:#6eccde;fill-rule:nonzero;stroke:#6dccde;stroke-width:3.12px;stroke-linecap:butt;stroke-miterlimit:2;"/><path d="M588.441,1357.38c-0.724,4.104 -4.636,6.844 -8.722,6.123c-4.086,-0.721 -6.798,-4.63 -6.074,-8.734c0.724,-4.104 4.61,-6.848 8.696,-6.127c4.086,0.721 6.824,4.634 6.1,8.738Z" style="fill:#6eccde;fill-rule:nonzero;stroke:#6dccde;stroke-width:3.12px;stroke-linecap:butt;stroke-miterlimit:2;"/></g></g><g transform="matrix(0.995594,0,0,1,-4.360734,0)"><g transform="matrix(346.100093,0,0,346.100093,578.214516,1369.309235)"></g><text x="110.287px" y="1369.309px" style="font-family:'AvenirNext-Medium', 'Avenir Next', sans-serif;font-weight:500;font-size:346.1px;fill:#68cbde;stroke:#6dccde;stroke-width:3.13px;stroke-linecap:butt;stroke-miterlimit:2;">ID-</text></g><g transform="matrix(0.995594,0,0,1,-1.41416,0)"><g transform="matrix(346.100093,0,0,346.100093,1493.387783,1369.309235)"></g><text x="779.037px" y="1369.309px" style="font-family:'AvenirNext-Medium', 'Avenir Next', sans-serif;font-weight:500;font-size:346.1px;fill:#68cbde;stroke:#6dccde;stroke-width:3.13px;stroke-linecap:butt;stroke-miterlimit:2;">ERO</text></g></g></svg>