<?xml version="1.0" encoding="UTF-8" standalone="no"?>
<!DOCTYPE svg PUBLIC "-//W3C//DTD SVG 1.1//EN" "http://www.w3.org/Graphics/SVG/1.1/DTD/svg11.dtd">
<svg width="100%" height="100%" viewBox="0 0 428 84" version="1.1" xmlns="http://www.w3.org/2000/svg" xmlns:xlink="http://www.w3.org/1999/xlink" xml:space="preserve" xmlns:serif="http://www.serif.com/" style="fill-rule:evenodd;clip-rule:evenodd;stroke-linejoin:round;stroke-miterlimit:2;">
    <g transform="matrix(1,0,0,1,-42.900328,-356.765738)">
        <g transform="matrix(1,0,0,1,-5.401755,0)">
            <g>
                <g transform="matrix(0.765723,0,0,0.769111,-311.127393,-205.037696)">
                    <text x="457.668px" y="836.312px" style="font-family:'AvenirNext-Medium', 'Avenir Next', sans-serif;font-weight:500;font-size:144px;fill:none;">ID-</text>
                    <text x="652.356px" y="836.312px" style="font-family:'AvenirNext-Medium', 'Avenir Next', sans-serif;font-weight:500;font-size:144px;fill:none;stroke:rgb(109,204,222);stroke-width:2.61px;">Z</text>
                    <g transform="matrix(144,0,0,144,1034.820083,836.311514)">
                    </g>
                    <text x="737.604px" y="836.312px" style="font-family:'AvenirNext-Medium', 'Avenir Next', sans-serif;font-weight:500;font-size:144px;fill:none;">ERO</text>
                </g>
                <g>
                    <g transform="matrix(1,0,0,1,5.401755,-7)">
                        <path d="M189,432L200,435" style="fill:none;stroke:rgb(109,204,222);stroke-width:1.33px;stroke-linecap:round;stroke-miterlimit:1.5;"/>
                    </g>
                    <g transform="matrix(1,0,0,1,5.401755,3)">
                        <path d="M187,431L200,425L197,434" style="fill:rgb(109,204,222);fill-opacity:0.07;stroke:rgb(109,204,222);stroke-width:1.33px;stroke-linecap:round;stroke-miterlimit:1.5;"/>
                    </g>
                    <g transform="matrix(1,0,0,1,5.401755,4)">
                        <path d="M201,425L209,435L229,425" style="fill:rgb(109,204,222);fill-opacity:0.27;stroke:rgb(109,204,222);stroke-width:1.33px;stroke-linecap:round;stroke-miterlimit:1.5;"/>
                    </g>
                    <g transform="matrix(1,0,0,1,5.401755,3)">
                        <path d="M187,357L207,367L204,357" style="fill:rgb(109,204,222);fill-opacity:0.18;stroke:rgb(109,204,222);stroke-width:1.33px;stroke-linecap:round;stroke-miterlimit:1.5;"/>
                    </g>
                    <g transform="matrix(1,0,0,1,5.401755,3)">
                        <path d="M213,390L215,404L223,378" style="fill:rgb(109,204,222);fill-opacity:0.12;stroke:rgb(109,204,222);stroke-width:1.33px;stroke-linecap:round;stroke-miterlimit:1.5;"/>
                    </g>
                    <g transform="matrix(1,0,0,1,5.401755,3)">
                        <path d="M216,403L198,411L200,424" style="fill:rgb(109,204,222);fill-opacity:0.04;stroke:rgb(109,204,222);stroke-width:1.33px;stroke-linecap:round;stroke-miterlimit:1.5;"/>
                    </g>
                    <g transform="matrix(1,0,0,1,5.401755,3)">
                        <path d="M207,367L222,357L244,362L231,366" style="fill:rgb(109,204,222);fill-opacity:0.1;stroke:rgb(109,204,222);stroke-width:1.33px;stroke-linecap:round;stroke-miterlimit:1.5;"/>
                    </g>
                    <g transform="matrix(1,0,0,1,5.401755,3)">
                        <path d="M223,377L237,375L223,357" style="fill:none;stroke:rgb(109,204,222);stroke-width:1.33px;stroke-linecap:round;stroke-miterlimit:1.5;"/>
                    </g>
                    <g transform="matrix(1,0,0,1,5.401755,3)">
                        <path d="M198,410L230,366L244,362L244,365L200,423" style="fill:rgb(109,204,222);fill-opacity:0.09;"/>
                    </g>
                    <g transform="matrix(1,0,0,1,5.401755,3)">
                        <path d="M243,434L230,425L228,435" style="fill:rgb(109,204,222);fill-opacity:0;stroke:rgb(109,204,222);stroke-width:1.33px;stroke-linecap:round;stroke-miterlimit:1.5;"/>
                    </g>
                    <g transform="matrix(1,0,0,1,5.401755,3)">
                        <path d="M213,390L215,404L223,378" style="fill:rgb(109,204,222);fill-opacity:0.22;stroke:rgb(109,204,222);stroke-width:1.33px;stroke-linecap:round;stroke-miterlimit:1.5;"/>
                    </g>
                    <g transform="matrix(1,0,0,1,5.401755,3)">
                        <path d="M187,357L207,367L204,357" style="fill:rgb(109,204,222);fill-opacity:0.07;stroke:rgb(109,204,222);stroke-width:1.33px;stroke-linecap:round;stroke-miterlimit:1.5;"/>
                    </g>
                </g>
                <g>
                    <g transform="matrix(0.824647,0,0,0.828297,-1057.409788,-135.465386)">
                        <path d="M1588.06,603.824C1588.06,605.434 1586.75,606.739 1585.14,606.739C1583.53,606.739 1582.23,605.434 1582.23,603.824C1582.23,602.214 1583.53,600.909 1585.14,600.909C1586.75,600.909 1588.06,602.214 1588.06,603.824Z" style="fill:rgb(110,204,222);fill-rule:nonzero;stroke:rgb(109,204,222);stroke-width:1.21px;"/>
                    </g>
                    <g transform="matrix(0.824647,0,0,0.828297,-1114.409788,-140.465386)">
                        <path d="M1588.06,603.824C1588.06,605.434 1586.75,606.739 1585.14,606.739C1583.53,606.739 1582.23,605.434 1582.23,603.824C1582.23,602.214 1583.53,600.909 1585.14,600.909C1586.75,600.909 1588.06,602.214 1588.06,603.824Z" style="fill:rgb(110,204,222);fill-rule:nonzero;stroke:rgb(109,204,222);stroke-width:1.21px;"/>
                    </g>
                    <g transform="matrix(0.824647,0,0,0.828297,-1092.409788,-62.465386)">
                        <path d="M1588.06,603.824C1588.06,605.434 1586.75,606.739 1585.14,606.739C1583.53,606.739 1582.23,605.434 1582.23,603.824C1582.23,602.214 1583.53,600.909 1585.14,600.909C1586.75,600.909 1588.06,602.214 1588.06,603.824Z" style="fill:rgb(110,204,222);fill-rule:nonzero;stroke:rgb(109,204,222);stroke-width:1.21px;"/>
                    </g>
                    <g transform="matrix(0.824647,0,0,0.828297,-1086.409788,-93.465386)">
                        <path d="M1588.06,603.824C1588.06,605.434 1586.75,606.739 1585.14,606.739C1583.53,606.739 1582.23,605.434 1582.23,603.824C1582.23,602.214 1583.53,600.909 1585.14,600.909C1586.75,600.909 1588.06,602.214 1588.06,603.824Z" style="fill:rgb(110,204,222);fill-rule:nonzero;stroke:rgb(109,204,222);stroke-width:1.21px;"/>
                    </g>
                    <g transform="matrix(0.800173,-0.199414,0.200297,0.803715,-1160.66478,211.318625)">
                        <path d="M1588.06,603.824C1588.06,605.434 1586.75,606.739 1585.14,606.739C1583.53,606.739 1582.23,605.434 1582.23,603.824C1582.23,602.214 1583.53,600.909 1585.14,600.909C1586.75,600.909 1588.06,602.214 1588.06,603.824Z" style="fill:rgb(110,204,222);fill-rule:nonzero;stroke:rgb(109,204,222);stroke-width:1.21px;"/>
                    </g>
                    <g transform="matrix(0.800173,-0.199414,0.200297,0.803715,-1177.452736,200.638237)">
                        <path d="M1588.06,603.824C1588.06,605.434 1586.75,606.739 1585.14,606.739C1583.53,606.739 1582.23,605.434 1582.23,603.824C1582.23,602.214 1583.53,600.909 1585.14,600.909C1586.75,600.909 1588.06,602.214 1588.06,603.824Z" style="fill:rgb(110,204,222);fill-rule:nonzero;stroke:rgb(109,204,222);stroke-width:1.21px;"/>
                    </g>
                    <g transform="matrix(0.800173,-0.199414,0.200297,0.803715,-1161.452736,190.638237)">
                        <path d="M1588.06,603.824C1588.06,605.434 1586.75,606.739 1585.14,606.739C1583.53,606.739 1582.23,605.434 1582.23,603.824C1582.23,602.214 1583.53,600.909 1585.14,600.909C1586.75,600.909 1588.06,602.214 1588.06,603.824Z" style="fill:rgb(110,204,222);fill-rule:nonzero;stroke:rgb(109,204,222);stroke-width:1.21px;"/>
                    </g>
                    <g transform="matrix(0.753352,0.335417,-0.336901,0.756686,-740.596816,-551.012244)">
                        <path d="M1588.06,603.824C1588.06,605.434 1586.75,606.739 1585.14,606.739C1583.53,606.739 1582.23,605.434 1582.23,603.824C1582.23,602.214 1583.53,600.909 1585.14,600.909C1586.75,600.909 1588.06,602.214 1588.06,603.824Z" style="fill:rgb(110,204,222);fill-rule:nonzero;stroke:rgb(109,204,222);stroke-width:1.21px;"/>
                    </g>
                    <g transform="matrix(0.812103,0.143289,-0.143923,0.815697,-965.174062,-291.274013)">
                        <path d="M1588.06,603.824C1588.06,605.434 1586.75,606.739 1585.14,606.739C1583.53,606.739 1582.23,605.434 1582.23,603.824C1582.23,602.214 1583.53,600.909 1585.14,600.909C1586.75,600.909 1588.06,602.214 1588.06,603.824Z" style="fill:rgb(110,204,222);fill-rule:nonzero;stroke:rgb(109,204,222);stroke-width:1.21px;"/>
                    </g>
                    <g transform="matrix(0.812103,0.143289,-0.143923,0.815697,-1008.885294,-285.727029)">
                        <path d="M1588.06,603.824C1588.06,605.434 1586.75,606.739 1585.14,606.739C1583.53,606.739 1582.23,605.434 1582.23,603.824C1582.23,602.214 1583.53,600.909 1585.14,600.909C1586.75,600.909 1588.06,602.214 1588.06,603.824Z" style="fill:rgb(110,204,222);fill-rule:nonzero;stroke:rgb(109,204,222);stroke-width:1.21px;"/>
                    </g>
                </g>
            </g>
            <g transform="matrix(0.765723,0,0,0.769111,-311.127393,-205.037696)">
                <g transform="matrix(144,0,0,144,652.356083,836.311514)">
                </g>
                <text x="457.668px" y="836.312px" style="font-family:'AvenirNext-Medium', 'Avenir Next', sans-serif;font-weight:500;font-size:144px;fill:rgb(104,203,222);stroke:rgb(109,204,222);stroke-width:1.3px;">ID-</text>
            </g>
            <g transform="matrix(0.765723,0,0,0.769111,-97.127393,-205.037696)">
                <g transform="matrix(144,0,0,144,754.884083,836.311514)">
                </g>
                <text x="457.668px" y="836.312px" style="font-family:'AvenirNext-Medium', 'Avenir Next', sans-serif;font-weight:500;font-size:144px;fill:rgb(104,203,222);stroke:rgb(109,204,222);stroke-width:1.3px;">ERO</text>
            </g>
        </g>
    </g>
</svg>
